<?xml version="1.0" encoding="utf-8" standalone="no"?>
<!DOCTYPE svg PUBLIC "-//W3C//DTD SVG 1.1//EN"
  "http://www.w3.org/Graphics/SVG/1.1/DTD/svg11.dtd">
<!-- Created with matplotlib (https://matplotlib.org/) -->
<svg height="792pt" version="1.1" viewBox="0 0 3024 792" width="3024pt" xmlns="http://www.w3.org/2000/svg" xmlns:xlink="http://www.w3.org/1999/xlink">
 <metadata>
  <rdf:RDF xmlns:cc="http://creativecommons.org/ns#" xmlns:dc="http://purl.org/dc/elements/1.1/" xmlns:rdf="http://www.w3.org/1999/02/22-rdf-syntax-ns#">
   <cc:Work>
    <dc:type rdf:resource="http://purl.org/dc/dcmitype/StillImage"/>
    <dc:date>2024-01-03T18:32:51.054209</dc:date>
    <dc:format>image/svg+xml</dc:format>
    <dc:creator>
     <cc:Agent>
      <dc:title>Matplotlib v3.3.4, https://matplotlib.org/</dc:title>
     </cc:Agent>
    </dc:creator>
   </cc:Work>
  </rdf:RDF>
 </metadata>
 <defs>
  <style type="text/css">*{stroke-linecap:butt;stroke-linejoin:round;}</style>
 </defs>
 <g id="figure_1">
  <g id="patch_1">
   <path d="M 0 792 
L 3024 792 
L 3024 0 
L 0 0 
z
" style="fill:#ffffff;"/>
  </g>
  <g id="axes_1">
   <g id="patch_2">
    <path d="M 120.96 594 
L 732.333913 594 
L 732.333913 95.04 
L 120.96 95.04 
z
" style="fill:#ffffff;"/>
   </g>
   <g id="matplotlib.axis_1">
    <g id="xtick_1">
     <g id="line2d_1">
      <defs>
       <path d="M 0 0 
L 0 3.5 
" id="mde4ba26922" style="stroke:#000000;stroke-width:3;"/>
      </defs>
      <g>
       <use style="stroke:#000000;stroke-width:3;" x="148.749723" xlink:href="#mde4ba26922" y="594"/>
      </g>
     </g>
     <g id="text_1">
      <!-- 0% -->
      <g transform="translate(120.987614 627.594531)scale(0.35 -0.35)">
       <defs>
        <path d="M 31.78125 66.40625 
Q 24.171875 66.40625 20.328125 58.90625 
Q 16.5 51.421875 16.5 36.375 
Q 16.5 21.390625 20.328125 13.890625 
Q 24.171875 6.390625 31.78125 6.390625 
Q 39.453125 6.390625 43.28125 13.890625 
Q 47.125 21.390625 47.125 36.375 
Q 47.125 51.421875 43.28125 58.90625 
Q 39.453125 66.40625 31.78125 66.40625 
z
M 31.78125 74.21875 
Q 44.046875 74.21875 50.515625 64.515625 
Q 56.984375 54.828125 56.984375 36.375 
Q 56.984375 17.96875 50.515625 8.265625 
Q 44.046875 -1.421875 31.78125 -1.421875 
Q 19.53125 -1.421875 13.0625 8.265625 
Q 6.59375 17.96875 6.59375 36.375 
Q 6.59375 54.828125 13.0625 64.515625 
Q 19.53125 74.21875 31.78125 74.21875 
z
" id="DejaVuSans-48"/>
        <path d="M 72.703125 32.078125 
Q 68.453125 32.078125 66.03125 28.46875 
Q 63.625 24.859375 63.625 18.40625 
Q 63.625 12.0625 66.03125 8.421875 
Q 68.453125 4.78125 72.703125 4.78125 
Q 76.859375 4.78125 79.265625 8.421875 
Q 81.6875 12.0625 81.6875 18.40625 
Q 81.6875 24.8125 79.265625 28.4375 
Q 76.859375 32.078125 72.703125 32.078125 
z
M 72.703125 38.28125 
Q 80.421875 38.28125 84.953125 32.90625 
Q 89.5 27.546875 89.5 18.40625 
Q 89.5 9.28125 84.9375 3.921875 
Q 80.375 -1.421875 72.703125 -1.421875 
Q 64.890625 -1.421875 60.34375 3.921875 
Q 55.8125 9.28125 55.8125 18.40625 
Q 55.8125 27.59375 60.375 32.9375 
Q 64.9375 38.28125 72.703125 38.28125 
z
M 22.3125 68.015625 
Q 18.109375 68.015625 15.6875 64.375 
Q 13.28125 60.75 13.28125 54.390625 
Q 13.28125 47.953125 15.671875 44.328125 
Q 18.0625 40.71875 22.3125 40.71875 
Q 26.5625 40.71875 28.96875 44.328125 
Q 31.390625 47.953125 31.390625 54.390625 
Q 31.390625 60.6875 28.953125 64.34375 
Q 26.515625 68.015625 22.3125 68.015625 
z
M 66.40625 74.21875 
L 74.21875 74.21875 
L 28.609375 -1.421875 
L 20.796875 -1.421875 
z
M 22.3125 74.21875 
Q 30.03125 74.21875 34.609375 68.875 
Q 39.203125 63.53125 39.203125 54.390625 
Q 39.203125 45.171875 34.640625 39.84375 
Q 30.078125 34.515625 22.3125 34.515625 
Q 14.546875 34.515625 10.03125 39.859375 
Q 5.515625 45.21875 5.515625 54.390625 
Q 5.515625 63.484375 10.046875 68.84375 
Q 14.59375 74.21875 22.3125 74.21875 
z
" id="DejaVuSans-37"/>
       </defs>
       <use xlink:href="#DejaVuSans-48"/>
       <use x="63.623047" xlink:href="#DejaVuSans-37"/>
      </g>
     </g>
    </g>
    <g id="xtick_2">
     <g id="line2d_2">
      <g>
       <use style="stroke:#000000;stroke-width:3;" x="259.908617" xlink:href="#mde4ba26922" y="594"/>
      </g>
     </g>
     <g id="text_2">
      <!-- 20% -->
      <g transform="translate(221.012132 627.594531)scale(0.35 -0.35)">
       <defs>
        <path d="M 19.1875 8.296875 
L 53.609375 8.296875 
L 53.609375 0 
L 7.328125 0 
L 7.328125 8.296875 
Q 12.9375 14.109375 22.625 23.890625 
Q 32.328125 33.6875 34.8125 36.53125 
Q 39.546875 41.84375 41.421875 45.53125 
Q 43.3125 49.21875 43.3125 52.78125 
Q 43.3125 58.59375 39.234375 62.25 
Q 35.15625 65.921875 28.609375 65.921875 
Q 23.96875 65.921875 18.8125 64.3125 
Q 13.671875 62.703125 7.8125 59.421875 
L 7.8125 69.390625 
Q 13.765625 71.78125 18.9375 73 
Q 24.125 74.21875 28.421875 74.21875 
Q 39.75 74.21875 46.484375 68.546875 
Q 53.21875 62.890625 53.21875 53.421875 
Q 53.21875 48.921875 51.53125 44.890625 
Q 49.859375 40.875 45.40625 35.40625 
Q 44.1875 33.984375 37.640625 27.21875 
Q 31.109375 20.453125 19.1875 8.296875 
z
" id="DejaVuSans-50"/>
       </defs>
       <use xlink:href="#DejaVuSans-50"/>
       <use x="63.623047" xlink:href="#DejaVuSans-48"/>
       <use x="127.246094" xlink:href="#DejaVuSans-37"/>
      </g>
     </g>
    </g>
    <g id="xtick_3">
     <g id="line2d_3">
      <g>
       <use style="stroke:#000000;stroke-width:3;" x="371.06751" xlink:href="#mde4ba26922" y="594"/>
      </g>
     </g>
     <g id="text_3">
      <!-- 40% -->
      <g transform="translate(332.171026 627.594531)scale(0.35 -0.35)">
       <defs>
        <path d="M 37.796875 64.3125 
L 12.890625 25.390625 
L 37.796875 25.390625 
z
M 35.203125 72.90625 
L 47.609375 72.90625 
L 47.609375 25.390625 
L 58.015625 25.390625 
L 58.015625 17.1875 
L 47.609375 17.1875 
L 47.609375 0 
L 37.796875 0 
L 37.796875 17.1875 
L 4.890625 17.1875 
L 4.890625 26.703125 
z
" id="DejaVuSans-52"/>
       </defs>
       <use xlink:href="#DejaVuSans-52"/>
       <use x="63.623047" xlink:href="#DejaVuSans-48"/>
       <use x="127.246094" xlink:href="#DejaVuSans-37"/>
      </g>
     </g>
    </g>
    <g id="xtick_4">
     <g id="line2d_4">
      <g>
       <use style="stroke:#000000;stroke-width:3;" x="482.226403" xlink:href="#mde4ba26922" y="594"/>
      </g>
     </g>
     <g id="text_4">
      <!-- 60% -->
      <g transform="translate(443.329919 627.594531)scale(0.35 -0.35)">
       <defs>
        <path d="M 33.015625 40.375 
Q 26.375 40.375 22.484375 35.828125 
Q 18.609375 31.296875 18.609375 23.390625 
Q 18.609375 15.53125 22.484375 10.953125 
Q 26.375 6.390625 33.015625 6.390625 
Q 39.65625 6.390625 43.53125 10.953125 
Q 47.40625 15.53125 47.40625 23.390625 
Q 47.40625 31.296875 43.53125 35.828125 
Q 39.65625 40.375 33.015625 40.375 
z
M 52.59375 71.296875 
L 52.59375 62.3125 
Q 48.875 64.0625 45.09375 64.984375 
Q 41.3125 65.921875 37.59375 65.921875 
Q 27.828125 65.921875 22.671875 59.328125 
Q 17.53125 52.734375 16.796875 39.40625 
Q 19.671875 43.65625 24.015625 45.921875 
Q 28.375 48.1875 33.59375 48.1875 
Q 44.578125 48.1875 50.953125 41.515625 
Q 57.328125 34.859375 57.328125 23.390625 
Q 57.328125 12.15625 50.6875 5.359375 
Q 44.046875 -1.421875 33.015625 -1.421875 
Q 20.359375 -1.421875 13.671875 8.265625 
Q 6.984375 17.96875 6.984375 36.375 
Q 6.984375 53.65625 15.1875 63.9375 
Q 23.390625 74.21875 37.203125 74.21875 
Q 40.921875 74.21875 44.703125 73.484375 
Q 48.484375 72.75 52.59375 71.296875 
z
" id="DejaVuSans-54"/>
       </defs>
       <use xlink:href="#DejaVuSans-54"/>
       <use x="63.623047" xlink:href="#DejaVuSans-48"/>
       <use x="127.246094" xlink:href="#DejaVuSans-37"/>
      </g>
     </g>
    </g>
    <g id="xtick_5">
     <g id="line2d_5">
      <g>
       <use style="stroke:#000000;stroke-width:3;" x="593.385296" xlink:href="#mde4ba26922" y="594"/>
      </g>
     </g>
     <g id="text_5">
      <!-- 80% -->
      <g transform="translate(554.488812 627.594531)scale(0.35 -0.35)">
       <defs>
        <path d="M 31.78125 34.625 
Q 24.75 34.625 20.71875 30.859375 
Q 16.703125 27.09375 16.703125 20.515625 
Q 16.703125 13.921875 20.71875 10.15625 
Q 24.75 6.390625 31.78125 6.390625 
Q 38.8125 6.390625 42.859375 10.171875 
Q 46.921875 13.96875 46.921875 20.515625 
Q 46.921875 27.09375 42.890625 30.859375 
Q 38.875 34.625 31.78125 34.625 
z
M 21.921875 38.8125 
Q 15.578125 40.375 12.03125 44.71875 
Q 8.5 49.078125 8.5 55.328125 
Q 8.5 64.0625 14.71875 69.140625 
Q 20.953125 74.21875 31.78125 74.21875 
Q 42.671875 74.21875 48.875 69.140625 
Q 55.078125 64.0625 55.078125 55.328125 
Q 55.078125 49.078125 51.53125 44.71875 
Q 48 40.375 41.703125 38.8125 
Q 48.828125 37.15625 52.796875 32.3125 
Q 56.78125 27.484375 56.78125 20.515625 
Q 56.78125 9.90625 50.3125 4.234375 
Q 43.84375 -1.421875 31.78125 -1.421875 
Q 19.734375 -1.421875 13.25 4.234375 
Q 6.78125 9.90625 6.78125 20.515625 
Q 6.78125 27.484375 10.78125 32.3125 
Q 14.796875 37.15625 21.921875 38.8125 
z
M 18.3125 54.390625 
Q 18.3125 48.734375 21.84375 45.5625 
Q 25.390625 42.390625 31.78125 42.390625 
Q 38.140625 42.390625 41.71875 45.5625 
Q 45.3125 48.734375 45.3125 54.390625 
Q 45.3125 60.0625 41.71875 63.234375 
Q 38.140625 66.40625 31.78125 66.40625 
Q 25.390625 66.40625 21.84375 63.234375 
Q 18.3125 60.0625 18.3125 54.390625 
z
" id="DejaVuSans-56"/>
       </defs>
       <use xlink:href="#DejaVuSans-56"/>
       <use x="63.623047" xlink:href="#DejaVuSans-48"/>
       <use x="127.246094" xlink:href="#DejaVuSans-37"/>
      </g>
     </g>
    </g>
    <g id="xtick_6">
     <g id="line2d_6">
      <g>
       <use style="stroke:#000000;stroke-width:3;" x="704.54419" xlink:href="#mde4ba26922" y="594"/>
      </g>
     </g>
     <g id="text_6">
      <!-- 100% -->
      <g transform="translate(654.51333 627.594531)scale(0.35 -0.35)">
       <defs>
        <path d="M 12.40625 8.296875 
L 28.515625 8.296875 
L 28.515625 63.921875 
L 10.984375 60.40625 
L 10.984375 69.390625 
L 28.421875 72.90625 
L 38.28125 72.90625 
L 38.28125 8.296875 
L 54.390625 8.296875 
L 54.390625 0 
L 12.40625 0 
z
" id="DejaVuSans-49"/>
       </defs>
       <use xlink:href="#DejaVuSans-49"/>
       <use x="63.623047" xlink:href="#DejaVuSans-48"/>
       <use x="127.246094" xlink:href="#DejaVuSans-48"/>
       <use x="190.869141" xlink:href="#DejaVuSans-37"/>
      </g>
     </g>
    </g>
    <g id="text_7">
     <!-- 监督训练数据的比例 -->
     <g transform="translate(224.146957 685.557031)scale(0.45 -0.45)">
      <defs>
       <path d="M 60.546875 23.828125 
L 60.546875 -1.953125 
L 74.609375 -1.953125 
L 74.609375 23.828125 
z
M 16.796875 -1.953125 
Q 16.796875 19.921875 16.40625 30.078125 
L 22.265625 26.171875 
L 73.828125 26.171875 
L 77.734375 30.078125 
L 83.203125 24.609375 
L 79.6875 21.875 
L 79.6875 -1.953125 
L 83.59375 -1.953125 
L 88.671875 3.125 
L 95.703125 -4.296875 
L 17.1875 -4.296875 
Q 12.109375 -4.296875 7.8125 -5.46875 
L 4.296875 -1.953125 
z
M 21.875 23.828125 
L 21.875 -1.953125 
L 36.328125 -1.953125 
L 36.328125 23.828125 
z
M 41.40625 23.828125 
L 41.40625 -1.953125 
L 55.46875 -1.953125 
L 55.46875 23.828125 
z
M 20.703125 68.359375 
Q 20.703125 45.703125 21.09375 37.5 
L 15.234375 34.765625 
Q 15.625 49.21875 15.625 57.21875 
Q 15.625 65.234375 15.234375 75.390625 
L 23.4375 71.484375 
z
M 39.0625 73.828125 
Q 39.0625 40.234375 39.453125 31.640625 
L 33.59375 28.90625 
Q 33.984375 41.796875 33.984375 54.875 
Q 33.984375 67.96875 33.59375 80.859375 
L 42.1875 76.953125 
z
M 63.671875 73.046875 
Q 61.71875 66.796875 60.546875 64.0625 
L 78.90625 64.0625 
L 83.984375 69.140625 
L 91.015625 61.71875 
L 59.765625 61.71875 
Q 52.34375 45.3125 44.53125 36.71875 
L 43.359375 37.5 
Q 50 49.609375 53.3125 59.765625 
Q 56.640625 69.921875 58.59375 80.859375 
L 67.578125 75.78125 
z
M 65.234375 56.640625 
Q 76.171875 49.21875 78.515625 45.5 
Q 80.859375 41.796875 80.859375 39.453125 
Q 80.859375 37.5 79.6875 35.734375 
Q 78.515625 33.984375 77.734375 33.984375 
Q 76.171875 33.984375 74.609375 38.28125 
Q 72.265625 44.53125 69.71875 48.234375 
Q 67.1875 51.953125 64.453125 55.46875 
z
" id="SimSun-30417"/>
       <path d="M 28.515625 7.03125 
L 28.515625 -0.78125 
L 70.703125 -0.78125 
L 70.703125 7.03125 
z
M 23.046875 -9.375 
Q 23.4375 0.390625 23.4375 11.328125 
Q 23.4375 22.265625 23.046875 32.421875 
L 29.296875 29.296875 
L 69.921875 29.296875 
L 73.828125 33.203125 
L 79.296875 27.734375 
L 75.78125 25.390625 
Q 75.78125 3.125 76.171875 -5.859375 
L 70.703125 -7.8125 
L 70.703125 -3.125 
L 28.515625 -3.125 
L 28.515625 -7.421875 
z
M 28.515625 26.953125 
L 28.515625 19.140625 
L 70.703125 19.140625 
L 70.703125 26.953125 
z
M 28.515625 16.796875 
L 28.515625 9.375 
L 70.703125 9.375 
L 70.703125 16.796875 
z
M 18.359375 53.90625 
L 24.21875 49.21875 
Q 21.484375 48.046875 17.578125 44.53125 
Q 13.28125 40.625 7.421875 35.9375 
L 6.640625 37.109375 
Q 15.234375 46.875 18.359375 53.90625 
z
M 37.890625 52.734375 
Q 46.484375 49.609375 48.828125 47.65625 
Q 51.171875 45.703125 50.78125 42.96875 
Q 50.390625 40.234375 49.21875 39.640625 
Q 48.046875 39.0625 46.09375 42.96875 
Q 44.140625 46.484375 37.109375 51.5625 
z
M 89.453125 70.703125 
L 85.546875 68.75 
Q 78.90625 55.46875 72.65625 48.828125 
Q 81.25 40.234375 94.140625 37.5 
L 94.140625 36.328125 
Q 89.0625 35.9375 86.71875 32.03125 
Q 76.953125 37.5 69.53125 46.09375 
Q 64.0625 40.625 57.421875 37.109375 
Q 50.78125 33.59375 42.1875 31.25 
L 41.796875 32.8125 
Q 48.828125 35.546875 55.65625 40.234375 
Q 62.5 44.921875 66.40625 49.609375 
Q 60.15625 59.765625 58.203125 70.3125 
L 55.078125 69.140625 
L 51.953125 72.65625 
L 79.6875 72.65625 
L 83.59375 76.5625 
z
M 60.546875 70.3125 
Q 63.671875 60.15625 69.921875 52.734375 
Q 76.171875 60.15625 80.078125 70.3125 
z
M 28.125 58.59375 
L 35.9375 55.859375 
L 33.203125 53.515625 
Q 33.203125 40.234375 33.59375 35.15625 
L 27.734375 32.421875 
Q 28.125 49.609375 28.125 58.59375 
z
M 33.203125 57.8125 
L 28.125 57.8125 
L 18.75 57.8125 
Q 13.671875 57.8125 9.375 56.640625 
L 5.859375 60.15625 
L 28.125 60.15625 
Q 28.125 75.78125 27.734375 82.03125 
L 36.328125 78.125 
L 33.203125 75.390625 
L 33.203125 70.3125 
L 41.015625 70.3125 
L 44.921875 74.21875 
L 50.78125 67.96875 
L 33.203125 67.96875 
L 33.203125 60.15625 
L 47.265625 60.15625 
L 51.171875 64.0625 
L 57.03125 57.8125 
z
" id="SimSun-30563"/>
       <path d="M 61.328125 71.484375 
L 69.921875 67.96875 
L 66.796875 65.625 
L 66.796875 16.40625 
Q 66.796875 12.890625 67.1875 4.296875 
L 61.328125 1.171875 
Q 61.71875 16.40625 61.71875 36.90625 
Q 61.71875 57.421875 61.328125 71.484375 
z
M 80.46875 78.515625 
L 89.0625 75 
L 85.9375 72.265625 
L 85.9375 11.328125 
Q 85.9375 3.515625 86.328125 -5.46875 
L 80.46875 -8.59375 
Q 80.859375 -1.171875 80.859375 7.8125 
L 80.859375 64.453125 
Q 80.859375 68.75 80.46875 78.515625 
z
M 14.84375 76.171875 
L 15.625 76.953125 
Q 23.4375 73.046875 25.96875 70.703125 
Q 28.515625 68.359375 28.125 65.625 
Q 27.734375 62.890625 26.5625 61.71875 
Q 25.390625 60.546875 24.609375 60.546875 
Q 23.4375 60.546875 22.265625 64.0625 
Q 20.703125 68.75 14.84375 76.171875 
z
M 25.390625 10.9375 
L 37.5 23.828125 
L 38.28125 23.046875 
Q 27.34375 8.203125 23.828125 0 
L 18.75 6.25 
Q 20.703125 8.203125 20.3125 11.328125 
L 20.3125 44.53125 
L 16.015625 44.53125 
Q 12.890625 44.53125 8.59375 43.359375 
L 5.078125 46.875 
L 19.921875 46.875 
L 22.65625 50.78125 
L 28.515625 45.703125 
L 25.390625 43.359375 
z
M 43.359375 78.125 
L 52.34375 74.21875 
L 49.21875 71.09375 
Q 49.21875 48.828125 49.015625 35.9375 
Q 48.828125 23.046875 43.9375 11.71875 
Q 39.0625 0.390625 24.609375 -9.765625 
L 23.4375 -8.984375 
Q 35.9375 2.734375 39.84375 14.0625 
Q 43.75 25.390625 43.75 41.40625 
Q 43.75 57.421875 43.359375 78.125 
z
" id="SimSun-35757"/>
       <path d="M 10.9375 49.609375 
L 27.734375 50.78125 
Q 30.46875 55.078125 33.203125 61.328125 
L 40.625 55.46875 
L 37.109375 54.296875 
Q 24.609375 39.0625 12.109375 25.78125 
Q 22.265625 26.953125 36.71875 29.6875 
L 37.109375 28.125 
Q 13.671875 21.875 10.15625 17.578125 
L 5.078125 25.78125 
Q 8.59375 26.953125 12.5 31.046875 
Q 16.40625 35.15625 26.171875 48.4375 
Q 21.484375 48.046875 16.984375 46.671875 
Q 12.5 45.3125 9.765625 42.578125 
L 5.078125 50.390625 
Q 8.59375 51.171875 13.859375 60.9375 
Q 19.140625 70.703125 22.265625 81.640625 
L 30.859375 76.5625 
L 26.5625 74.21875 
Q 19.140625 62.109375 10.9375 49.609375 
z
M 4.6875 5.859375 
Q 19.53125 9.765625 37.890625 15.625 
L 38.28125 14.0625 
Q 24.21875 7.8125 11.71875 1.171875 
L 9.375 -1.5625 
z
M 42.1875 35.15625 
Q 45.3125 39.84375 48.4375 48.046875 
Q 46.484375 48.046875 42.1875 46.875 
L 38.671875 50.390625 
L 49.21875 50.390625 
L 54.6875 64.453125 
L 48.828125 64.453125 
Q 43.75 64.453125 39.453125 63.28125 
L 35.9375 66.796875 
L 55.46875 66.796875 
Q 58.984375 78.125 59.375 82.03125 
L 67.578125 77.34375 
L 64.0625 75.390625 
Q 62.890625 72.65625 60.546875 66.796875 
L 80.078125 66.796875 
L 85.15625 71.875 
L 92.1875 64.453125 
L 59.765625 64.453125 
L 54.296875 50.390625 
L 66.40625 50.390625 
L 69.140625 53.90625 
L 75.390625 49.21875 
L 72.265625 46.875 
L 72.265625 32.8125 
L 82.8125 32.8125 
L 87.5 37.5 
L 94.53125 30.46875 
L 72.265625 30.46875 
L 72.265625 2.34375 
Q 72.65625 -7.03125 62.890625 -9.375 
Q 62.890625 -3.515625 51.5625 -0.78125 
L 51.5625 0.78125 
Q 60.9375 0 64.0625 0 
Q 67.1875 0 67.1875 4.296875 
L 67.1875 30.46875 
L 46.484375 30.46875 
L 43.75 27.734375 
L 38.671875 33.203125 
z
M 53.90625 16.015625 
Q 41.40625 0 29.6875 -7.8125 
L 28.515625 -6.640625 
Q 35.546875 0 40.625 7.03125 
Q 45.703125 14.0625 49.609375 23.046875 
L 57.421875 17.1875 
z
M 76.5625 21.484375 
Q 90.234375 12.890625 92.765625 9.953125 
Q 95.3125 7.03125 95.3125 4.296875 
Q 95.3125 1.953125 94.140625 -0.578125 
Q 92.96875 -3.125 92.1875 -3.125 
Q 91.015625 -3.125 89.0625 1.953125 
Q 86.328125 8.984375 75.78125 20.3125 
z
M 53.515625 48.046875 
Q 50.390625 41.015625 46.09375 32.8125 
L 67.1875 32.8125 
L 67.1875 48.046875 
z
" id="SimSun-32451"/>
       <path d="M 29.296875 23.828125 
Q 26.171875 18.75 23.4375 14.0625 
Q 28.515625 12.890625 35.546875 11.328125 
Q 39.0625 15.234375 42.578125 23.828125 
z
M 13.28125 76.5625 
Q 20.703125 71.875 22.265625 69.53125 
Q 23.828125 67.1875 23.828125 66.015625 
Q 23.828125 64.0625 22.453125 62.109375 
Q 21.09375 60.15625 20.3125 60.15625 
Q 19.140625 60.15625 17.96875 64.0625 
Q 16.40625 69.53125 12.109375 75.78125 
z
M 46.875 77.734375 
L 53.90625 73.046875 
Q 50.78125 72.265625 48.4375 69.140625 
Q 45.703125 66.015625 39.453125 59.765625 
L 38.28125 60.546875 
Q 45.703125 72.265625 46.875 77.734375 
z
M 29.296875 82.03125 
L 37.890625 78.125 
L 34.765625 75.390625 
L 34.765625 57.421875 
L 44.53125 57.421875 
L 48.828125 61.71875 
L 55.46875 55.078125 
L 34.765625 55.078125 
L 34.765625 51.5625 
Q 43.75 49.609375 45.890625 47.84375 
Q 48.046875 46.09375 48.046875 43.359375 
Q 48.046875 42.1875 47.65625 40.421875 
Q 47.265625 38.671875 46.484375 38.671875 
Q 45.703125 38.671875 43.75 41.40625 
Q 40.625 45.703125 34.765625 49.609375 
L 34.765625 37.5 
L 30.078125 34.375 
L 35.546875 32.03125 
Q 33.59375 31.25 30.46875 26.171875 
L 42.578125 26.171875 
L 45.3125 29.6875 
L 51.171875 24.609375 
L 47.65625 22.65625 
Q 43.75 13.671875 40.625 10.15625 
Q 46.875 8.59375 49.015625 6.828125 
Q 51.171875 5.078125 51.171875 2.34375 
Q 51.171875 -0.390625 50 -0.390625 
Q 48.828125 -0.390625 47.265625 1.171875 
Q 42.96875 4.296875 37.5 6.640625 
Q 23.828125 -4.296875 5.078125 -7.8125 
L 4.6875 -6.640625 
Q 22.65625 -0.78125 32.8125 8.59375 
Q 25 11.328125 17.578125 12.5 
Q 19.140625 14.84375 23.828125 23.828125 
L 18.75 23.828125 
Q 13.671875 23.828125 9.375 22.65625 
L 5.859375 26.171875 
L 24.609375 26.171875 
Q 26.171875 30.078125 27.734375 35.546875 
L 29.6875 34.765625 
L 29.6875 50.78125 
Q 19.140625 38.671875 5.46875 32.03125 
L 4.6875 33.203125 
Q 19.140625 43.359375 26.5625 55.078125 
L 19.53125 55.078125 
Q 14.453125 55.078125 10.15625 53.90625 
L 6.640625 57.421875 
L 29.6875 57.421875 
Q 29.6875 71.484375 29.296875 82.03125 
z
M 61.328125 55.078125 
Q 63.28125 32.421875 70.703125 17.1875 
Q 76.953125 30.46875 78.515625 55.078125 
z
M 63.28125 82.03125 
L 72.265625 76.953125 
Q 69.140625 75.78125 67.578125 72.265625 
Q 66.015625 68.75 61.71875 57.421875 
L 83.984375 57.421875 
L 88.671875 62.109375 
L 95.703125 55.078125 
L 84.375 55.078125 
Q 82.03125 26.171875 74.21875 12.109375 
Q 83.203125 1.171875 95.3125 -1.5625 
L 95.3125 -3.125 
Q 87.890625 -4.296875 87.5 -7.8125 
Q 77.34375 -0.78125 70.703125 8.203125 
Q 57.8125 -4.296875 39.84375 -10.15625 
L 39.0625 -8.984375 
Q 57.03125 -0.78125 67.578125 12.5 
Q 60.15625 30.859375 59.765625 52.734375 
Q 55.859375 42.578125 48.4375 33.59375 
L 47.265625 34.375 
Q 56.640625 50 63.28125 82.03125 
z
" id="SimSun-25968"/>
       <path d="M 48.828125 -10.15625 
Q 49.21875 -1.5625 49.21875 8 
Q 49.21875 17.578125 48.828125 25 
L 54.296875 21.875 
L 65.234375 21.875 
L 65.234375 37.5 
L 46.875 37.5 
Q 44.140625 9.765625 26.171875 -8.203125 
L 25 -7.03125 
Q 33.59375 4.296875 38.078125 18.546875 
Q 42.578125 32.8125 42.765625 51.75 
Q 42.96875 70.703125 42.578125 78.90625 
L 48.4375 75.390625 
L 80.46875 75.390625 
L 83.59375 78.515625 
L 89.0625 73.4375 
L 85.9375 71.484375 
Q 85.9375 59.765625 86.328125 54.296875 
L 80.859375 51.953125 
L 80.859375 56.640625 
L 48.046875 56.640625 
Q 48.046875 49.21875 47.265625 39.84375 
L 65.234375 39.84375 
Q 65.234375 47.265625 64.84375 54.296875 
L 73.4375 50.390625 
L 70.3125 48.046875 
L 70.3125 39.84375 
L 83.203125 39.84375 
L 87.5 44.140625 
L 94.140625 37.5 
L 70.3125 37.5 
L 70.3125 21.875 
L 80.46875 21.875 
L 83.59375 25.390625 
L 89.0625 20.3125 
L 85.9375 17.96875 
Q 85.9375 2.34375 86.328125 -6.25 
L 80.859375 -9.375 
L 80.859375 -1.171875 
L 54.296875 -1.171875 
L 54.296875 -7.8125 
z
M 48.046875 73.046875 
L 48.046875 58.984375 
L 80.859375 58.984375 
L 80.859375 73.046875 
z
M 54.296875 19.53125 
L 54.296875 1.171875 
L 80.859375 1.171875 
L 80.859375 19.53125 
z
M 26.171875 38.28125 
L 39.0625 45.703125 
L 39.84375 44.140625 
L 26.171875 33.984375 
L 26.171875 2.34375 
Q 25.78125 -4.6875 17.578125 -7.8125 
Q 18.359375 -3.90625 7.8125 0.390625 
L 7.8125 1.953125 
Q 16.40625 0.390625 18.546875 0.578125 
Q 20.703125 0.78125 20.703125 3.515625 
L 20.703125 31.25 
Q 9.765625 23.4375 9.375 21.09375 
L 3.515625 28.125 
Q 5.859375 28.515625 20.703125 35.9375 
L 20.703125 55.859375 
L 11.71875 55.859375 
L 7.03125 55.078125 
L 3.90625 58.203125 
L 20.703125 58.203125 
Q 20.703125 74.21875 20.3125 80.859375 
L 29.296875 76.171875 
L 26.171875 73.4375 
L 26.171875 58.203125 
L 30.46875 58.203125 
L 35.546875 62.5 
L 41.40625 55.859375 
L 26.171875 55.859375 
z
" id="SimSun-25454"/>
       <path d="M 17.578125 58.984375 
L 17.578125 33.984375 
L 37.890625 33.984375 
L 37.890625 58.984375 
z
M 17.578125 31.640625 
L 17.578125 4.296875 
L 37.890625 4.296875 
L 37.890625 31.640625 
z
M 42.96875 56.640625 
Q 42.96875 10.9375 43.359375 -3.125 
L 37.890625 -6.25 
L 37.890625 1.953125 
L 17.578125 1.953125 
L 17.578125 -4.6875 
L 12.109375 -7.8125 
Q 12.5 10.546875 12.5 28.703125 
Q 12.5 46.875 12.109375 64.84375 
L 17.96875 61.328125 
L 21.875 61.328125 
Q 25.78125 74.609375 26.171875 81.640625 
L 34.765625 76.953125 
Q 30.859375 75 24.21875 61.328125 
L 37.109375 61.328125 
L 41.015625 65.234375 
L 46.875 59.375 
z
M 62.109375 81.25 
L 70.703125 76.171875 
Q 67.578125 74.21875 60.9375 60.15625 
L 82.03125 60.15625 
L 86.328125 64.453125 
L 92.1875 58.59375 
L 88.671875 55.859375 
Q 87.890625 10.15625 86.515625 4.09375 
Q 85.15625 -1.953125 82.609375 -4.296875 
Q 80.078125 -6.640625 74.609375 -8.59375 
Q 72.65625 -2.34375 61.71875 0.78125 
L 61.71875 2.734375 
Q 71.484375 0.78125 75.78125 0.78125 
Q 80.078125 0.78125 81.046875 7.421875 
Q 82.03125 14.0625 82.8125 57.8125 
L 60.15625 57.8125 
Q 53.125 46.484375 45.3125 38.671875 
L 44.140625 39.453125 
Q 52.34375 51.953125 56.25 61.71875 
Q 60.15625 71.484375 62.109375 81.25 
z
M 55.078125 42.96875 
Q 64.453125 35.9375 66.015625 32.609375 
Q 67.578125 29.296875 67.578125 27.734375 
Q 67.578125 25 66.015625 23.046875 
Q 64.453125 21.09375 63.671875 21.09375 
Q 62.109375 21.09375 61.328125 26.5625 
Q 59.765625 34.375 54.296875 41.796875 
z
" id="SimSun-30340"/>
       <path d="M 16.40625 53.125 
Q 16.40625 70.703125 16.015625 79.296875 
L 25.390625 75 
L 21.875 71.875 
L 21.875 45.703125 
L 37.5 45.703125 
L 42.1875 50.390625 
L 49.21875 43.359375 
L 21.875 43.359375 
L 21.875 5.46875 
L 47.65625 14.453125 
L 48.4375 12.890625 
Q 25.390625 2.34375 19.53125 -3.90625 
L 14.84375 2.734375 
Q 16.40625 4.296875 16.40625 8.203125 
z
M 53.515625 59.765625 
Q 53.515625 71.484375 53.125 80.078125 
L 62.890625 75.390625 
L 58.984375 72.265625 
L 58.984375 39.453125 
Q 67.1875 45.703125 73.625 53.125 
Q 80.078125 60.546875 82.421875 65.234375 
L 90.234375 57.8125 
Q 85.546875 57.03125 78.515625 50.78125 
Q 71.09375 44.53125 58.984375 37.109375 
L 58.984375 6.640625 
Q 58.984375 1.953125 64.0625 1.953125 
L 80.078125 1.953125 
Q 83.203125 1.953125 84.375 5.46875 
Q 85.546875 8.984375 85.9375 22.265625 
L 87.890625 22.265625 
Q 87.890625 12.890625 89.25 8.59375 
Q 90.625 4.296875 93.75 2.734375 
Q 91.796875 -0.390625 89.25 -1.75 
Q 86.71875 -3.125 82.421875 -3.125 
L 62.109375 -3.125 
Q 53.515625 -3.125 53.515625 4.296875 
z
" id="SimSun-27604"/>
       <path d="M 60.9375 46.875 
Q 56.640625 28.90625 51.5625 19.53125 
Q 46.484375 10.15625 39.84375 3.90625 
Q 33.203125 -2.34375 25.390625 -6.25 
L 24.609375 -5.078125 
Q 33.984375 1.5625 39.453125 8.984375 
Q 44.921875 16.40625 48.625 25.390625 
Q 52.34375 34.375 55.46875 48.046875 
L 42.1875 48.046875 
Q 39.84375 42.578125 37.5 38.28125 
Q 43.359375 34.375 44.921875 32.03125 
Q 46.484375 29.6875 46.484375 28.515625 
Q 46.484375 26.5625 45.109375 24.796875 
Q 43.75 23.046875 43.359375 23.046875 
Q 42.1875 23.046875 41.40625 26.953125 
Q 40.234375 32.03125 36.71875 36.71875 
Q 33.203125 30.46875 27.34375 24.21875 
L 26.171875 25.390625 
Q 32.8125 34.375 36.90625 47.0625 
Q 41.015625 59.765625 41.796875 66.40625 
L 36.328125 66.40625 
L 32.03125 65.625 
L 28.515625 68.75 
L 56.25 68.75 
L 60.546875 73.046875 
L 67.1875 66.40625 
L 48.046875 66.40625 
Q 46.875 62.109375 42.96875 50.390625 
L 55.078125 50.390625 
L 58.203125 54.296875 
L 64.84375 49.21875 
z
M 73.828125 31.25 
Q 73.828125 27.34375 74.21875 15.234375 
L 68.359375 12.5 
Q 68.75 25.390625 68.75 29.6875 
L 68.75 51.5625 
Q 68.75 58.203125 68.359375 63.671875 
L 76.953125 59.765625 
L 73.828125 56.640625 
z
M 83.59375 61.71875 
Q 83.59375 68.359375 83.203125 80.078125 
L 91.796875 75.78125 
L 88.671875 73.4375 
L 88.671875 -0.390625 
Q 89.0625 -6.640625 80.859375 -9.375 
Q 80.46875 -4.296875 68.75 -1.953125 
L 69.140625 0 
Q 78.90625 -1.5625 81.25 -0.96875 
Q 83.59375 -0.390625 83.59375 3.515625 
z
M 17.1875 -9.375 
Q 17.578125 3.515625 17.578125 8.984375 
L 17.578125 49.21875 
Q 9.765625 37.109375 5.078125 32.03125 
L 3.90625 32.8125 
Q 12.5 47.265625 16.796875 59.375 
Q 21.09375 71.484375 23.046875 81.25 
L 31.640625 76.5625 
L 28.515625 74.609375 
Q 22.265625 59.765625 20.3125 55.078125 
L 25.78125 52.734375 
L 22.65625 50 
L 22.65625 8.203125 
Q 22.65625 1.5625 23.046875 -6.640625 
z
" id="SimSun-20363"/>
      </defs>
      <use xlink:href="#SimSun-30417"/>
      <use x="100" xlink:href="#SimSun-30563"/>
      <use x="200" xlink:href="#SimSun-35757"/>
      <use x="300" xlink:href="#SimSun-32451"/>
      <use x="400" xlink:href="#SimSun-25968"/>
      <use x="500" xlink:href="#SimSun-25454"/>
      <use x="600" xlink:href="#SimSun-30340"/>
      <use x="700" xlink:href="#SimSun-27604"/>
      <use x="800" xlink:href="#SimSun-20363"/>
     </g>
    </g>
   </g>
   <g id="matplotlib.axis_2">
    <g id="ytick_1">
     <g id="line2d_7">
      <defs>
       <path d="M 0 0 
L -3.5 0 
" id="md4b90cf928" style="stroke:#000000;stroke-width:3;"/>
      </defs>
      <g>
       <use style="stroke:#000000;stroke-width:3;" x="120.96" xlink:href="#md4b90cf928" y="594"/>
      </g>
     </g>
     <g id="text_8">
      <!-- 0 -->
      <g transform="translate(91.69125 607.297266)scale(0.35 -0.35)">
       <use xlink:href="#DejaVuSans-48"/>
      </g>
     </g>
    </g>
    <g id="ytick_2">
     <g id="line2d_8">
      <g>
       <use style="stroke:#000000;stroke-width:3;" x="120.96" xlink:href="#md4b90cf928" y="494.208"/>
      </g>
     </g>
     <g id="text_9">
      <!-- 20 -->
      <g transform="translate(69.4225 507.505266)scale(0.35 -0.35)">
       <use xlink:href="#DejaVuSans-50"/>
       <use x="63.623047" xlink:href="#DejaVuSans-48"/>
      </g>
     </g>
    </g>
    <g id="ytick_3">
     <g id="line2d_9">
      <g>
       <use style="stroke:#000000;stroke-width:3;" x="120.96" xlink:href="#md4b90cf928" y="394.416"/>
      </g>
     </g>
     <g id="text_10">
      <!-- 40 -->
      <g transform="translate(69.4225 407.713266)scale(0.35 -0.35)">
       <use xlink:href="#DejaVuSans-52"/>
       <use x="63.623047" xlink:href="#DejaVuSans-48"/>
      </g>
     </g>
    </g>
    <g id="ytick_4">
     <g id="line2d_10">
      <g>
       <use style="stroke:#000000;stroke-width:3;" x="120.96" xlink:href="#md4b90cf928" y="294.624"/>
      </g>
     </g>
     <g id="text_11">
      <!-- 60 -->
      <g transform="translate(69.4225 307.921266)scale(0.35 -0.35)">
       <use xlink:href="#DejaVuSans-54"/>
       <use x="63.623047" xlink:href="#DejaVuSans-48"/>
      </g>
     </g>
    </g>
    <g id="ytick_5">
     <g id="line2d_11">
      <g>
       <use style="stroke:#000000;stroke-width:3;" x="120.96" xlink:href="#md4b90cf928" y="194.832"/>
      </g>
     </g>
     <g id="text_12">
      <!-- 80 -->
      <g transform="translate(69.4225 208.129266)scale(0.35 -0.35)">
       <use xlink:href="#DejaVuSans-56"/>
       <use x="63.623047" xlink:href="#DejaVuSans-48"/>
      </g>
     </g>
    </g>
    <g id="ytick_6">
     <g id="line2d_12">
      <g>
       <use style="stroke:#000000;stroke-width:3;" x="120.96" xlink:href="#md4b90cf928" y="95.04"/>
      </g>
     </g>
     <g id="text_13">
      <!-- 100 -->
      <g transform="translate(47.15375 108.337266)scale(0.35 -0.35)">
       <use xlink:href="#DejaVuSans-49"/>
       <use x="63.623047" xlink:href="#DejaVuSans-48"/>
       <use x="127.246094" xlink:href="#DejaVuSans-48"/>
      </g>
     </g>
    </g>
    <g id="text_14">
     <!-- F1 -->
     <g transform="translate(53.835 368.748125)rotate(-90)scale(0.4 -0.4)">
      <defs>
       <path d="M 9.8125 72.90625 
L 51.703125 72.90625 
L 51.703125 64.59375 
L 19.671875 64.59375 
L 19.671875 43.109375 
L 48.578125 43.109375 
L 48.578125 34.8125 
L 19.671875 34.8125 
L 19.671875 0 
L 9.8125 0 
z
" id="DejaVuSans-70"/>
      </defs>
      <use xlink:href="#DejaVuSans-70"/>
      <use x="57.519531" xlink:href="#DejaVuSans-49"/>
     </g>
    </g>
   </g>
   <g id="line2d_13">
    <path clip-path="url(#p76c9284005)" d="M 148.749723 506.731896 
L 259.908617 428.34528 
L 371.06751 423.85464 
L 482.226403 392.519952 
L 593.385296 385.135344 
L 704.54419 349.210224 
" style="fill:none;stroke:#ff0000;stroke-linecap:square;stroke-width:5;"/>
    <defs>
     <path d="M 0 -7.5 
L -7.5 7.5 
L 7.5 7.5 
z
" id="mef2cc99fae" style="stroke:#ff0000;stroke-linejoin:miter;"/>
    </defs>
    <g clip-path="url(#p76c9284005)">
     <use style="fill:#ff0000;stroke:#ff0000;stroke-linejoin:miter;" x="148.749723" xlink:href="#mef2cc99fae" y="506.731896"/>
     <use style="fill:#ff0000;stroke:#ff0000;stroke-linejoin:miter;" x="259.908617" xlink:href="#mef2cc99fae" y="428.34528"/>
     <use style="fill:#ff0000;stroke:#ff0000;stroke-linejoin:miter;" x="371.06751" xlink:href="#mef2cc99fae" y="423.85464"/>
     <use style="fill:#ff0000;stroke:#ff0000;stroke-linejoin:miter;" x="482.226403" xlink:href="#mef2cc99fae" y="392.519952"/>
     <use style="fill:#ff0000;stroke:#ff0000;stroke-linejoin:miter;" x="593.385296" xlink:href="#mef2cc99fae" y="385.135344"/>
     <use style="fill:#ff0000;stroke:#ff0000;stroke-linejoin:miter;" x="704.54419" xlink:href="#mef2cc99fae" y="349.210224"/>
    </g>
   </g>
   <g id="line2d_14">
    <path clip-path="url(#p76c9284005)" d="M 148.749723 348.162408 
L 259.908617 383.638464 
L 371.06751 372.46176 
L 482.226403 352.653048 
L 593.385296 334.341216 
L 704.54419 334.490904 
" style="fill:none;stroke:#00ff00;stroke-linecap:square;stroke-width:5;"/>
    <defs>
     <path d="M 0 7.5 
C 1.989023 7.5 3.896849 6.709753 5.303301 5.303301 
C 6.709753 3.896849 7.5 1.989023 7.5 0 
C 7.5 -1.989023 6.709753 -3.896849 5.303301 -5.303301 
C 3.896849 -6.709753 1.989023 -7.5 0 -7.5 
C -1.989023 -7.5 -3.896849 -6.709753 -5.303301 -5.303301 
C -6.709753 -3.896849 -7.5 -1.989023 -7.5 0 
C -7.5 1.989023 -6.709753 3.896849 -5.303301 5.303301 
C -3.896849 6.709753 -1.989023 7.5 0 7.5 
z
" id="m094c1e5798" style="stroke:#00ff00;"/>
    </defs>
    <g clip-path="url(#p76c9284005)">
     <use style="fill:#00ff00;stroke:#00ff00;" x="148.749723" xlink:href="#m094c1e5798" y="348.162408"/>
     <use style="fill:#00ff00;stroke:#00ff00;" x="259.908617" xlink:href="#m094c1e5798" y="383.638464"/>
     <use style="fill:#00ff00;stroke:#00ff00;" x="371.06751" xlink:href="#m094c1e5798" y="372.46176"/>
     <use style="fill:#00ff00;stroke:#00ff00;" x="482.226403" xlink:href="#m094c1e5798" y="352.653048"/>
     <use style="fill:#00ff00;stroke:#00ff00;" x="593.385296" xlink:href="#m094c1e5798" y="334.341216"/>
     <use style="fill:#00ff00;stroke:#00ff00;" x="704.54419" xlink:href="#m094c1e5798" y="334.490904"/>
    </g>
   </g>
   <g id="line2d_15">
    <path clip-path="url(#p76c9284005)" d="M 148.749723 333.79236 
L 259.908617 284.694696 
L 371.06751 271.42236 
L 482.226403 266.782032 
L 593.385296 268.129224 
L 704.54419 272.1708 
" style="fill:none;stroke:#0000ff;stroke-linecap:square;stroke-width:5;"/>
    <defs>
     <path d="M -7.5 7.5 
L 7.5 7.5 
L 7.5 -7.5 
L -7.5 -7.5 
z
" id="m05d79266d4" style="stroke:#0000ff;stroke-linejoin:miter;"/>
    </defs>
    <g clip-path="url(#p76c9284005)">
     <use style="fill:#0000ff;stroke:#0000ff;stroke-linejoin:miter;" x="148.749723" xlink:href="#m05d79266d4" y="333.79236"/>
     <use style="fill:#0000ff;stroke:#0000ff;stroke-linejoin:miter;" x="259.908617" xlink:href="#m05d79266d4" y="284.694696"/>
     <use style="fill:#0000ff;stroke:#0000ff;stroke-linejoin:miter;" x="371.06751" xlink:href="#m05d79266d4" y="271.42236"/>
     <use style="fill:#0000ff;stroke:#0000ff;stroke-linejoin:miter;" x="482.226403" xlink:href="#m05d79266d4" y="266.782032"/>
     <use style="fill:#0000ff;stroke:#0000ff;stroke-linejoin:miter;" x="593.385296" xlink:href="#m05d79266d4" y="268.129224"/>
     <use style="fill:#0000ff;stroke:#0000ff;stroke-linejoin:miter;" x="704.54419" xlink:href="#m05d79266d4" y="272.1708"/>
    </g>
   </g>
   <g id="patch_3">
    <path d="M 120.96 594 
L 120.96 95.04 
" style="fill:none;stroke:#000000;stroke-linecap:square;stroke-linejoin:miter;stroke-width:0.8;"/>
   </g>
   <g id="patch_4">
    <path d="M 732.333913 594 
L 732.333913 95.04 
" style="fill:none;stroke:#000000;stroke-linecap:square;stroke-linejoin:miter;stroke-width:0.8;"/>
   </g>
   <g id="patch_5">
    <path d="M 120.96 594 
L 732.333913 594 
" style="fill:none;stroke:#000000;stroke-linecap:square;stroke-linejoin:miter;stroke-width:0.8;"/>
   </g>
   <g id="patch_6">
    <path d="M 120.96 95.04 
L 732.333913 95.04 
" style="fill:none;stroke:#000000;stroke-linecap:square;stroke-linejoin:miter;stroke-width:0.8;"/>
   </g>
   <g id="text_15">
    <!-- Walmart-Amazon1 -->
    <g transform="translate(196.107894 75.04)scale(0.5 -0.5)">
     <defs>
      <path d="M 3.328125 72.90625 
L 13.28125 72.90625 
L 28.609375 11.28125 
L 43.890625 72.90625 
L 54.984375 72.90625 
L 70.3125 11.28125 
L 85.59375 72.90625 
L 95.609375 72.90625 
L 77.296875 0 
L 64.890625 0 
L 49.515625 63.28125 
L 33.984375 0 
L 21.578125 0 
z
" id="DejaVuSans-87"/>
      <path d="M 34.28125 27.484375 
Q 23.390625 27.484375 19.1875 25 
Q 14.984375 22.515625 14.984375 16.5 
Q 14.984375 11.71875 18.140625 8.90625 
Q 21.296875 6.109375 26.703125 6.109375 
Q 34.1875 6.109375 38.703125 11.40625 
Q 43.21875 16.703125 43.21875 25.484375 
L 43.21875 27.484375 
z
M 52.203125 31.203125 
L 52.203125 0 
L 43.21875 0 
L 43.21875 8.296875 
Q 40.140625 3.328125 35.546875 0.953125 
Q 30.953125 -1.421875 24.3125 -1.421875 
Q 15.921875 -1.421875 10.953125 3.296875 
Q 6 8.015625 6 15.921875 
Q 6 25.140625 12.171875 29.828125 
Q 18.359375 34.515625 30.609375 34.515625 
L 43.21875 34.515625 
L 43.21875 35.40625 
Q 43.21875 41.609375 39.140625 45 
Q 35.0625 48.390625 27.6875 48.390625 
Q 23 48.390625 18.546875 47.265625 
Q 14.109375 46.140625 10.015625 43.890625 
L 10.015625 52.203125 
Q 14.9375 54.109375 19.578125 55.046875 
Q 24.21875 56 28.609375 56 
Q 40.484375 56 46.34375 49.84375 
Q 52.203125 43.703125 52.203125 31.203125 
z
" id="DejaVuSans-97"/>
      <path d="M 9.421875 75.984375 
L 18.40625 75.984375 
L 18.40625 0 
L 9.421875 0 
z
" id="DejaVuSans-108"/>
      <path d="M 52 44.1875 
Q 55.375 50.25 60.0625 53.125 
Q 64.75 56 71.09375 56 
Q 79.640625 56 84.28125 50.015625 
Q 88.921875 44.046875 88.921875 33.015625 
L 88.921875 0 
L 79.890625 0 
L 79.890625 32.71875 
Q 79.890625 40.578125 77.09375 44.375 
Q 74.3125 48.1875 68.609375 48.1875 
Q 61.625 48.1875 57.5625 43.546875 
Q 53.515625 38.921875 53.515625 30.90625 
L 53.515625 0 
L 44.484375 0 
L 44.484375 32.71875 
Q 44.484375 40.625 41.703125 44.40625 
Q 38.921875 48.1875 33.109375 48.1875 
Q 26.21875 48.1875 22.15625 43.53125 
Q 18.109375 38.875 18.109375 30.90625 
L 18.109375 0 
L 9.078125 0 
L 9.078125 54.6875 
L 18.109375 54.6875 
L 18.109375 46.1875 
Q 21.1875 51.21875 25.484375 53.609375 
Q 29.78125 56 35.6875 56 
Q 41.65625 56 45.828125 52.96875 
Q 50 49.953125 52 44.1875 
z
" id="DejaVuSans-109"/>
      <path d="M 41.109375 46.296875 
Q 39.59375 47.171875 37.8125 47.578125 
Q 36.03125 48 33.890625 48 
Q 26.265625 48 22.1875 43.046875 
Q 18.109375 38.09375 18.109375 28.8125 
L 18.109375 0 
L 9.078125 0 
L 9.078125 54.6875 
L 18.109375 54.6875 
L 18.109375 46.1875 
Q 20.953125 51.171875 25.484375 53.578125 
Q 30.03125 56 36.53125 56 
Q 37.453125 56 38.578125 55.875 
Q 39.703125 55.765625 41.0625 55.515625 
z
" id="DejaVuSans-114"/>
      <path d="M 18.3125 70.21875 
L 18.3125 54.6875 
L 36.8125 54.6875 
L 36.8125 47.703125 
L 18.3125 47.703125 
L 18.3125 18.015625 
Q 18.3125 11.328125 20.140625 9.421875 
Q 21.96875 7.515625 27.59375 7.515625 
L 36.8125 7.515625 
L 36.8125 0 
L 27.59375 0 
Q 17.1875 0 13.234375 3.875 
Q 9.28125 7.765625 9.28125 18.015625 
L 9.28125 47.703125 
L 2.6875 47.703125 
L 2.6875 54.6875 
L 9.28125 54.6875 
L 9.28125 70.21875 
z
" id="DejaVuSans-116"/>
      <path d="M 4.890625 31.390625 
L 31.203125 31.390625 
L 31.203125 23.390625 
L 4.890625 23.390625 
z
" id="DejaVuSans-45"/>
      <path d="M 34.1875 63.1875 
L 20.796875 26.90625 
L 47.609375 26.90625 
z
M 28.609375 72.90625 
L 39.796875 72.90625 
L 67.578125 0 
L 57.328125 0 
L 50.6875 18.703125 
L 17.828125 18.703125 
L 11.1875 0 
L 0.78125 0 
z
" id="DejaVuSans-65"/>
      <path d="M 5.515625 54.6875 
L 48.1875 54.6875 
L 48.1875 46.484375 
L 14.40625 7.171875 
L 48.1875 7.171875 
L 48.1875 0 
L 4.296875 0 
L 4.296875 8.203125 
L 38.09375 47.515625 
L 5.515625 47.515625 
z
" id="DejaVuSans-122"/>
      <path d="M 30.609375 48.390625 
Q 23.390625 48.390625 19.1875 42.75 
Q 14.984375 37.109375 14.984375 27.296875 
Q 14.984375 17.484375 19.15625 11.84375 
Q 23.34375 6.203125 30.609375 6.203125 
Q 37.796875 6.203125 41.984375 11.859375 
Q 46.1875 17.53125 46.1875 27.296875 
Q 46.1875 37.015625 41.984375 42.703125 
Q 37.796875 48.390625 30.609375 48.390625 
z
M 30.609375 56 
Q 42.328125 56 49.015625 48.375 
Q 55.71875 40.765625 55.71875 27.296875 
Q 55.71875 13.875 49.015625 6.21875 
Q 42.328125 -1.421875 30.609375 -1.421875 
Q 18.84375 -1.421875 12.171875 6.21875 
Q 5.515625 13.875 5.515625 27.296875 
Q 5.515625 40.765625 12.171875 48.375 
Q 18.84375 56 30.609375 56 
z
" id="DejaVuSans-111"/>
      <path d="M 54.890625 33.015625 
L 54.890625 0 
L 45.90625 0 
L 45.90625 32.71875 
Q 45.90625 40.484375 42.875 44.328125 
Q 39.84375 48.1875 33.796875 48.1875 
Q 26.515625 48.1875 22.3125 43.546875 
Q 18.109375 38.921875 18.109375 30.90625 
L 18.109375 0 
L 9.078125 0 
L 9.078125 54.6875 
L 18.109375 54.6875 
L 18.109375 46.1875 
Q 21.34375 51.125 25.703125 53.5625 
Q 30.078125 56 35.796875 56 
Q 45.21875 56 50.046875 50.171875 
Q 54.890625 44.34375 54.890625 33.015625 
z
" id="DejaVuSans-110"/>
     </defs>
     <use xlink:href="#DejaVuSans-87"/>
     <use x="92.501953" xlink:href="#DejaVuSans-97"/>
     <use x="153.78125" xlink:href="#DejaVuSans-108"/>
     <use x="181.564453" xlink:href="#DejaVuSans-109"/>
     <use x="278.976562" xlink:href="#DejaVuSans-97"/>
     <use x="340.255859" xlink:href="#DejaVuSans-114"/>
     <use x="381.369141" xlink:href="#DejaVuSans-116"/>
     <use x="420.578125" xlink:href="#DejaVuSans-45"/>
     <use x="454.412109" xlink:href="#DejaVuSans-65"/>
     <use x="522.820312" xlink:href="#DejaVuSans-109"/>
     <use x="620.232422" xlink:href="#DejaVuSans-97"/>
     <use x="681.511719" xlink:href="#DejaVuSans-122"/>
     <use x="734.001953" xlink:href="#DejaVuSans-111"/>
     <use x="795.183594" xlink:href="#DejaVuSans-110"/>
     <use x="858.5625" xlink:href="#DejaVuSans-49"/>
    </g>
   </g>
  </g>
  <g id="axes_2">
   <g id="patch_7">
    <path d="M 854.608696 594 
L 1465.982609 594 
L 1465.982609 95.04 
L 854.608696 95.04 
z
" style="fill:#ffffff;"/>
   </g>
   <g id="matplotlib.axis_3">
    <g id="xtick_7">
     <g id="line2d_16">
      <g>
       <use style="stroke:#000000;stroke-width:3;" x="882.398419" xlink:href="#mde4ba26922" y="594"/>
      </g>
     </g>
     <g id="text_16">
      <!-- 0% -->
      <g transform="translate(854.63631 627.594531)scale(0.35 -0.35)">
       <use xlink:href="#DejaVuSans-48"/>
       <use x="63.623047" xlink:href="#DejaVuSans-37"/>
      </g>
     </g>
    </g>
    <g id="xtick_8">
     <g id="line2d_17">
      <g>
       <use style="stroke:#000000;stroke-width:3;" x="993.557312" xlink:href="#mde4ba26922" y="594"/>
      </g>
     </g>
     <g id="text_17">
      <!-- 20% -->
      <g transform="translate(954.660828 627.594531)scale(0.35 -0.35)">
       <use xlink:href="#DejaVuSans-50"/>
       <use x="63.623047" xlink:href="#DejaVuSans-48"/>
       <use x="127.246094" xlink:href="#DejaVuSans-37"/>
      </g>
     </g>
    </g>
    <g id="xtick_9">
     <g id="line2d_18">
      <g>
       <use style="stroke:#000000;stroke-width:3;" x="1104.716206" xlink:href="#mde4ba26922" y="594"/>
      </g>
     </g>
     <g id="text_18">
      <!-- 40% -->
      <g transform="translate(1065.819721 627.594531)scale(0.35 -0.35)">
       <use xlink:href="#DejaVuSans-52"/>
       <use x="63.623047" xlink:href="#DejaVuSans-48"/>
       <use x="127.246094" xlink:href="#DejaVuSans-37"/>
      </g>
     </g>
    </g>
    <g id="xtick_10">
     <g id="line2d_19">
      <g>
       <use style="stroke:#000000;stroke-width:3;" x="1215.875099" xlink:href="#mde4ba26922" y="594"/>
      </g>
     </g>
     <g id="text_19">
      <!-- 60% -->
      <g transform="translate(1176.978614 627.594531)scale(0.35 -0.35)">
       <use xlink:href="#DejaVuSans-54"/>
       <use x="63.623047" xlink:href="#DejaVuSans-48"/>
       <use x="127.246094" xlink:href="#DejaVuSans-37"/>
      </g>
     </g>
    </g>
    <g id="xtick_11">
     <g id="line2d_20">
      <g>
       <use style="stroke:#000000;stroke-width:3;" x="1327.033992" xlink:href="#mde4ba26922" y="594"/>
      </g>
     </g>
     <g id="text_20">
      <!-- 80% -->
      <g transform="translate(1288.137508 627.594531)scale(0.35 -0.35)">
       <use xlink:href="#DejaVuSans-56"/>
       <use x="63.623047" xlink:href="#DejaVuSans-48"/>
       <use x="127.246094" xlink:href="#DejaVuSans-37"/>
      </g>
     </g>
    </g>
    <g id="xtick_12">
     <g id="line2d_21">
      <g>
       <use style="stroke:#000000;stroke-width:3;" x="1438.192885" xlink:href="#mde4ba26922" y="594"/>
      </g>
     </g>
     <g id="text_21">
      <!-- 100% -->
      <g transform="translate(1388.162026 627.594531)scale(0.35 -0.35)">
       <use xlink:href="#DejaVuSans-49"/>
       <use x="63.623047" xlink:href="#DejaVuSans-48"/>
       <use x="127.246094" xlink:href="#DejaVuSans-48"/>
       <use x="190.869141" xlink:href="#DejaVuSans-37"/>
      </g>
     </g>
    </g>
    <g id="text_22">
     <!-- 监督训练数据的比例 -->
     <g transform="translate(957.795652 685.557031)scale(0.45 -0.45)">
      <use xlink:href="#SimSun-30417"/>
      <use x="100" xlink:href="#SimSun-30563"/>
      <use x="200" xlink:href="#SimSun-35757"/>
      <use x="300" xlink:href="#SimSun-32451"/>
      <use x="400" xlink:href="#SimSun-25968"/>
      <use x="500" xlink:href="#SimSun-25454"/>
      <use x="600" xlink:href="#SimSun-30340"/>
      <use x="700" xlink:href="#SimSun-27604"/>
      <use x="800" xlink:href="#SimSun-20363"/>
     </g>
    </g>
   </g>
   <g id="matplotlib.axis_4">
    <g id="ytick_7">
     <g id="line2d_22">
      <g>
       <use style="stroke:#000000;stroke-width:3;" x="854.608696" xlink:href="#md4b90cf928" y="594"/>
      </g>
     </g>
     <g id="text_23">
      <!-- 0 -->
      <g transform="translate(825.339946 607.297266)scale(0.35 -0.35)">
       <use xlink:href="#DejaVuSans-48"/>
      </g>
     </g>
    </g>
    <g id="ytick_8">
     <g id="line2d_23">
      <g>
       <use style="stroke:#000000;stroke-width:3;" x="854.608696" xlink:href="#md4b90cf928" y="494.208"/>
      </g>
     </g>
     <g id="text_24">
      <!-- 20 -->
      <g transform="translate(803.071196 507.505266)scale(0.35 -0.35)">
       <use xlink:href="#DejaVuSans-50"/>
       <use x="63.623047" xlink:href="#DejaVuSans-48"/>
      </g>
     </g>
    </g>
    <g id="ytick_9">
     <g id="line2d_24">
      <g>
       <use style="stroke:#000000;stroke-width:3;" x="854.608696" xlink:href="#md4b90cf928" y="394.416"/>
      </g>
     </g>
     <g id="text_25">
      <!-- 40 -->
      <g transform="translate(803.071196 407.713266)scale(0.35 -0.35)">
       <use xlink:href="#DejaVuSans-52"/>
       <use x="63.623047" xlink:href="#DejaVuSans-48"/>
      </g>
     </g>
    </g>
    <g id="ytick_10">
     <g id="line2d_25">
      <g>
       <use style="stroke:#000000;stroke-width:3;" x="854.608696" xlink:href="#md4b90cf928" y="294.624"/>
      </g>
     </g>
     <g id="text_26">
      <!-- 60 -->
      <g transform="translate(803.071196 307.921266)scale(0.35 -0.35)">
       <use xlink:href="#DejaVuSans-54"/>
       <use x="63.623047" xlink:href="#DejaVuSans-48"/>
      </g>
     </g>
    </g>
    <g id="ytick_11">
     <g id="line2d_26">
      <g>
       <use style="stroke:#000000;stroke-width:3;" x="854.608696" xlink:href="#md4b90cf928" y="194.832"/>
      </g>
     </g>
     <g id="text_27">
      <!-- 80 -->
      <g transform="translate(803.071196 208.129266)scale(0.35 -0.35)">
       <use xlink:href="#DejaVuSans-56"/>
       <use x="63.623047" xlink:href="#DejaVuSans-48"/>
      </g>
     </g>
    </g>
    <g id="ytick_12">
     <g id="line2d_27">
      <g>
       <use style="stroke:#000000;stroke-width:3;" x="854.608696" xlink:href="#md4b90cf928" y="95.04"/>
      </g>
     </g>
     <g id="text_28">
      <!-- 100 -->
      <g transform="translate(780.802446 108.337266)scale(0.35 -0.35)">
       <use xlink:href="#DejaVuSans-49"/>
       <use x="63.623047" xlink:href="#DejaVuSans-48"/>
       <use x="127.246094" xlink:href="#DejaVuSans-48"/>
      </g>
     </g>
    </g>
    <g id="text_29">
     <!-- F1 -->
     <g transform="translate(787.483696 368.748125)rotate(-90)scale(0.4 -0.4)">
      <use xlink:href="#DejaVuSans-70"/>
      <use x="57.519531" xlink:href="#DejaVuSans-49"/>
     </g>
    </g>
   </g>
   <g id="line2d_28">
    <path clip-path="url(#peee49a5bfd)" d="M 882.398419 419.014728 
L 993.557312 260.245656 
L 1104.716206 211.447368 
L 1215.875099 190.790424 
L 1327.033992 188.894376 
L 1438.192885 188.046144 
" style="fill:none;stroke:#ff0000;stroke-linecap:square;stroke-width:5;"/>
    <g clip-path="url(#peee49a5bfd)">
     <use style="fill:#ff0000;stroke:#ff0000;stroke-linejoin:miter;" x="882.398419" xlink:href="#mef2cc99fae" y="419.014728"/>
     <use style="fill:#ff0000;stroke:#ff0000;stroke-linejoin:miter;" x="993.557312" xlink:href="#mef2cc99fae" y="260.245656"/>
     <use style="fill:#ff0000;stroke:#ff0000;stroke-linejoin:miter;" x="1104.716206" xlink:href="#mef2cc99fae" y="211.447368"/>
     <use style="fill:#ff0000;stroke:#ff0000;stroke-linejoin:miter;" x="1215.875099" xlink:href="#mef2cc99fae" y="190.790424"/>
     <use style="fill:#ff0000;stroke:#ff0000;stroke-linejoin:miter;" x="1327.033992" xlink:href="#mef2cc99fae" y="188.894376"/>
     <use style="fill:#ff0000;stroke:#ff0000;stroke-linejoin:miter;" x="1438.192885" xlink:href="#mef2cc99fae" y="188.046144"/>
    </g>
   </g>
   <g id="line2d_29">
    <path clip-path="url(#peee49a5bfd)" d="M 882.398419 346.066776 
L 993.557312 222.474384 
L 1104.716206 204.012864 
L 1215.875099 191.488968 
L 1327.033992 189.792504 
L 1438.192885 183.306024 
" style="fill:none;stroke:#00ff00;stroke-linecap:square;stroke-width:5;"/>
    <g clip-path="url(#peee49a5bfd)">
     <use style="fill:#00ff00;stroke:#00ff00;" x="882.398419" xlink:href="#m094c1e5798" y="346.066776"/>
     <use style="fill:#00ff00;stroke:#00ff00;" x="993.557312" xlink:href="#m094c1e5798" y="222.474384"/>
     <use style="fill:#00ff00;stroke:#00ff00;" x="1104.716206" xlink:href="#m094c1e5798" y="204.012864"/>
     <use style="fill:#00ff00;stroke:#00ff00;" x="1215.875099" xlink:href="#m094c1e5798" y="191.488968"/>
     <use style="fill:#00ff00;stroke:#00ff00;" x="1327.033992" xlink:href="#m094c1e5798" y="189.792504"/>
     <use style="fill:#00ff00;stroke:#00ff00;" x="1438.192885" xlink:href="#m094c1e5798" y="183.306024"/>
    </g>
   </g>
   <g id="line2d_30">
    <path clip-path="url(#peee49a5bfd)" d="M 882.398419 386.083368 
L 993.557312 217.584576 
L 1104.716206 210.349656 
L 1215.875099 191.83824 
L 1327.033992 180.412056 
L 1438.192885 171.87984 
" style="fill:none;stroke:#0000ff;stroke-linecap:square;stroke-width:5;"/>
    <g clip-path="url(#peee49a5bfd)">
     <use style="fill:#0000ff;stroke:#0000ff;stroke-linejoin:miter;" x="882.398419" xlink:href="#m05d79266d4" y="386.083368"/>
     <use style="fill:#0000ff;stroke:#0000ff;stroke-linejoin:miter;" x="993.557312" xlink:href="#m05d79266d4" y="217.584576"/>
     <use style="fill:#0000ff;stroke:#0000ff;stroke-linejoin:miter;" x="1104.716206" xlink:href="#m05d79266d4" y="210.349656"/>
     <use style="fill:#0000ff;stroke:#0000ff;stroke-linejoin:miter;" x="1215.875099" xlink:href="#m05d79266d4" y="191.83824"/>
     <use style="fill:#0000ff;stroke:#0000ff;stroke-linejoin:miter;" x="1327.033992" xlink:href="#m05d79266d4" y="180.412056"/>
     <use style="fill:#0000ff;stroke:#0000ff;stroke-linejoin:miter;" x="1438.192885" xlink:href="#m05d79266d4" y="171.87984"/>
    </g>
   </g>
   <g id="patch_8">
    <path d="M 854.608696 594 
L 854.608696 95.04 
" style="fill:none;stroke:#000000;stroke-linecap:square;stroke-linejoin:miter;stroke-width:0.8;"/>
   </g>
   <g id="patch_9">
    <path d="M 1465.982609 594 
L 1465.982609 95.04 
" style="fill:none;stroke:#000000;stroke-linecap:square;stroke-linejoin:miter;stroke-width:0.8;"/>
   </g>
   <g id="patch_10">
    <path d="M 854.608696 594 
L 1465.982609 594 
" style="fill:none;stroke:#000000;stroke-linecap:square;stroke-linejoin:miter;stroke-width:0.8;"/>
   </g>
   <g id="patch_11">
    <path d="M 854.608696 95.04 
L 1465.982609 95.04 
" style="fill:none;stroke:#000000;stroke-linecap:square;stroke-linejoin:miter;stroke-width:0.8;"/>
   </g>
   <g id="text_30">
    <!-- DBLP-Scholar-small -->
    <g transform="translate(919.119871 75.04)scale(0.5 -0.5)">
     <defs>
      <path d="M 19.671875 64.796875 
L 19.671875 8.109375 
L 31.59375 8.109375 
Q 46.6875 8.109375 53.6875 14.9375 
Q 60.6875 21.78125 60.6875 36.53125 
Q 60.6875 51.171875 53.6875 57.984375 
Q 46.6875 64.796875 31.59375 64.796875 
z
M 9.8125 72.90625 
L 30.078125 72.90625 
Q 51.265625 72.90625 61.171875 64.09375 
Q 71.09375 55.28125 71.09375 36.53125 
Q 71.09375 17.671875 61.125 8.828125 
Q 51.171875 0 30.078125 0 
L 9.8125 0 
z
" id="DejaVuSans-68"/>
      <path d="M 19.671875 34.8125 
L 19.671875 8.109375 
L 35.5 8.109375 
Q 43.453125 8.109375 47.28125 11.40625 
Q 51.125 14.703125 51.125 21.484375 
Q 51.125 28.328125 47.28125 31.5625 
Q 43.453125 34.8125 35.5 34.8125 
z
M 19.671875 64.796875 
L 19.671875 42.828125 
L 34.28125 42.828125 
Q 41.5 42.828125 45.03125 45.53125 
Q 48.578125 48.25 48.578125 53.8125 
Q 48.578125 59.328125 45.03125 62.0625 
Q 41.5 64.796875 34.28125 64.796875 
z
M 9.8125 72.90625 
L 35.015625 72.90625 
Q 46.296875 72.90625 52.390625 68.21875 
Q 58.5 63.53125 58.5 54.890625 
Q 58.5 48.1875 55.375 44.234375 
Q 52.25 40.28125 46.1875 39.3125 
Q 53.46875 37.75 57.5 32.78125 
Q 61.53125 27.828125 61.53125 20.40625 
Q 61.53125 10.640625 54.890625 5.3125 
Q 48.25 0 35.984375 0 
L 9.8125 0 
z
" id="DejaVuSans-66"/>
      <path d="M 9.8125 72.90625 
L 19.671875 72.90625 
L 19.671875 8.296875 
L 55.171875 8.296875 
L 55.171875 0 
L 9.8125 0 
z
" id="DejaVuSans-76"/>
      <path d="M 19.671875 64.796875 
L 19.671875 37.40625 
L 32.078125 37.40625 
Q 38.96875 37.40625 42.71875 40.96875 
Q 46.484375 44.53125 46.484375 51.125 
Q 46.484375 57.671875 42.71875 61.234375 
Q 38.96875 64.796875 32.078125 64.796875 
z
M 9.8125 72.90625 
L 32.078125 72.90625 
Q 44.34375 72.90625 50.609375 67.359375 
Q 56.890625 61.8125 56.890625 51.125 
Q 56.890625 40.328125 50.609375 34.8125 
Q 44.34375 29.296875 32.078125 29.296875 
L 19.671875 29.296875 
L 19.671875 0 
L 9.8125 0 
z
" id="DejaVuSans-80"/>
      <path d="M 53.515625 70.515625 
L 53.515625 60.890625 
Q 47.90625 63.578125 42.921875 64.890625 
Q 37.9375 66.21875 33.296875 66.21875 
Q 25.25 66.21875 20.875 63.09375 
Q 16.5 59.96875 16.5 54.203125 
Q 16.5 49.359375 19.40625 46.890625 
Q 22.3125 44.4375 30.421875 42.921875 
L 36.375 41.703125 
Q 47.40625 39.59375 52.65625 34.296875 
Q 57.90625 29 57.90625 20.125 
Q 57.90625 9.515625 50.796875 4.046875 
Q 43.703125 -1.421875 29.984375 -1.421875 
Q 24.8125 -1.421875 18.96875 -0.25 
Q 13.140625 0.921875 6.890625 3.21875 
L 6.890625 13.375 
Q 12.890625 10.015625 18.65625 8.296875 
Q 24.421875 6.59375 29.984375 6.59375 
Q 38.421875 6.59375 43.015625 9.90625 
Q 47.609375 13.234375 47.609375 19.390625 
Q 47.609375 24.75 44.3125 27.78125 
Q 41.015625 30.8125 33.5 32.328125 
L 27.484375 33.5 
Q 16.453125 35.6875 11.515625 40.375 
Q 6.59375 45.0625 6.59375 53.421875 
Q 6.59375 63.09375 13.40625 68.65625 
Q 20.21875 74.21875 32.171875 74.21875 
Q 37.3125 74.21875 42.625 73.28125 
Q 47.953125 72.359375 53.515625 70.515625 
z
" id="DejaVuSans-83"/>
      <path d="M 48.78125 52.59375 
L 48.78125 44.1875 
Q 44.96875 46.296875 41.140625 47.34375 
Q 37.3125 48.390625 33.40625 48.390625 
Q 24.65625 48.390625 19.8125 42.84375 
Q 14.984375 37.3125 14.984375 27.296875 
Q 14.984375 17.28125 19.8125 11.734375 
Q 24.65625 6.203125 33.40625 6.203125 
Q 37.3125 6.203125 41.140625 7.25 
Q 44.96875 8.296875 48.78125 10.40625 
L 48.78125 2.09375 
Q 45.015625 0.34375 40.984375 -0.53125 
Q 36.96875 -1.421875 32.421875 -1.421875 
Q 20.0625 -1.421875 12.78125 6.34375 
Q 5.515625 14.109375 5.515625 27.296875 
Q 5.515625 40.671875 12.859375 48.328125 
Q 20.21875 56 33.015625 56 
Q 37.15625 56 41.109375 55.140625 
Q 45.0625 54.296875 48.78125 52.59375 
z
" id="DejaVuSans-99"/>
      <path d="M 54.890625 33.015625 
L 54.890625 0 
L 45.90625 0 
L 45.90625 32.71875 
Q 45.90625 40.484375 42.875 44.328125 
Q 39.84375 48.1875 33.796875 48.1875 
Q 26.515625 48.1875 22.3125 43.546875 
Q 18.109375 38.921875 18.109375 30.90625 
L 18.109375 0 
L 9.078125 0 
L 9.078125 75.984375 
L 18.109375 75.984375 
L 18.109375 46.1875 
Q 21.34375 51.125 25.703125 53.5625 
Q 30.078125 56 35.796875 56 
Q 45.21875 56 50.046875 50.171875 
Q 54.890625 44.34375 54.890625 33.015625 
z
" id="DejaVuSans-104"/>
      <path d="M 44.28125 53.078125 
L 44.28125 44.578125 
Q 40.484375 46.53125 36.375 47.5 
Q 32.28125 48.484375 27.875 48.484375 
Q 21.1875 48.484375 17.84375 46.4375 
Q 14.5 44.390625 14.5 40.28125 
Q 14.5 37.15625 16.890625 35.375 
Q 19.28125 33.59375 26.515625 31.984375 
L 29.59375 31.296875 
Q 39.15625 29.25 43.1875 25.515625 
Q 47.21875 21.78125 47.21875 15.09375 
Q 47.21875 7.46875 41.1875 3.015625 
Q 35.15625 -1.421875 24.609375 -1.421875 
Q 20.21875 -1.421875 15.453125 -0.5625 
Q 10.6875 0.296875 5.421875 2 
L 5.421875 11.28125 
Q 10.40625 8.6875 15.234375 7.390625 
Q 20.0625 6.109375 24.8125 6.109375 
Q 31.15625 6.109375 34.5625 8.28125 
Q 37.984375 10.453125 37.984375 14.40625 
Q 37.984375 18.0625 35.515625 20.015625 
Q 33.0625 21.96875 24.703125 23.78125 
L 21.578125 24.515625 
Q 13.234375 26.265625 9.515625 29.90625 
Q 5.8125 33.546875 5.8125 39.890625 
Q 5.8125 47.609375 11.28125 51.796875 
Q 16.75 56 26.8125 56 
Q 31.78125 56 36.171875 55.265625 
Q 40.578125 54.546875 44.28125 53.078125 
z
" id="DejaVuSans-115"/>
     </defs>
     <use xlink:href="#DejaVuSans-68"/>
     <use x="77.001953" xlink:href="#DejaVuSans-66"/>
     <use x="145.605469" xlink:href="#DejaVuSans-76"/>
     <use x="201.318359" xlink:href="#DejaVuSans-80"/>
     <use x="259.371094" xlink:href="#DejaVuSans-45"/>
     <use x="295.455078" xlink:href="#DejaVuSans-83"/>
     <use x="358.931641" xlink:href="#DejaVuSans-99"/>
     <use x="413.912109" xlink:href="#DejaVuSans-104"/>
     <use x="477.291016" xlink:href="#DejaVuSans-111"/>
     <use x="538.472656" xlink:href="#DejaVuSans-108"/>
     <use x="566.255859" xlink:href="#DejaVuSans-97"/>
     <use x="627.535156" xlink:href="#DejaVuSans-114"/>
     <use x="662.273438" xlink:href="#DejaVuSans-45"/>
     <use x="698.357422" xlink:href="#DejaVuSans-115"/>
     <use x="750.457031" xlink:href="#DejaVuSans-109"/>
     <use x="847.869141" xlink:href="#DejaVuSans-97"/>
     <use x="909.148438" xlink:href="#DejaVuSans-108"/>
     <use x="936.931641" xlink:href="#DejaVuSans-108"/>
    </g>
   </g>
   <g id="legend_1">
    <g id="patch_12">
     <path d="M 1085.994837 786.0632 
L 2151.657337 786.0632 
Q 2158.657337 786.0632 2158.657337 779.0632 
L 2158.657337 731.189763 
Q 2158.657337 724.189763 2151.657337 724.189763 
L 1085.994837 724.189763 
Q 1078.994837 724.189763 1078.994837 731.189763 
L 1078.994837 779.0632 
Q 1078.994837 786.0632 1085.994837 786.0632 
z
" style="fill:#ffffff;opacity:0.8;stroke:#cccccc;stroke-linejoin:miter;"/>
    </g>
    <g id="line2d_31">
     <path d="M 1092.994837 752.534294 
L 1162.994837 752.534294 
" style="fill:none;stroke:#ff0000;stroke-linecap:square;stroke-width:5;"/>
    </g>
    <g id="line2d_32">
     <g>
      <use style="fill:#ff0000;stroke:#ff0000;stroke-linejoin:miter;" x="1127.994837" xlink:href="#mef2cc99fae" y="752.534294"/>
     </g>
    </g>
    <g id="text_31">
     <!-- DM-RNN -->
     <g transform="translate(1190.994837 764.784294)scale(0.35 -0.35)">
      <defs>
       <path d="M 9.8125 72.90625 
L 24.515625 72.90625 
L 43.109375 23.296875 
L 61.8125 72.90625 
L 76.515625 72.90625 
L 76.515625 0 
L 66.890625 0 
L 66.890625 64.015625 
L 48.09375 14.015625 
L 38.1875 14.015625 
L 19.390625 64.015625 
L 19.390625 0 
L 9.8125 0 
z
" id="DejaVuSans-77"/>
       <path d="M 44.390625 34.1875 
Q 47.5625 33.109375 50.5625 29.59375 
Q 53.5625 26.078125 56.59375 19.921875 
L 66.609375 0 
L 56 0 
L 46.6875 18.703125 
Q 43.0625 26.03125 39.671875 28.421875 
Q 36.28125 30.8125 30.421875 30.8125 
L 19.671875 30.8125 
L 19.671875 0 
L 9.8125 0 
L 9.8125 72.90625 
L 32.078125 72.90625 
Q 44.578125 72.90625 50.734375 67.671875 
Q 56.890625 62.453125 56.890625 51.90625 
Q 56.890625 45.015625 53.6875 40.46875 
Q 50.484375 35.9375 44.390625 34.1875 
z
M 19.671875 64.796875 
L 19.671875 38.921875 
L 32.078125 38.921875 
Q 39.203125 38.921875 42.84375 42.21875 
Q 46.484375 45.515625 46.484375 51.90625 
Q 46.484375 58.296875 42.84375 61.546875 
Q 39.203125 64.796875 32.078125 64.796875 
z
" id="DejaVuSans-82"/>
       <path d="M 9.8125 72.90625 
L 23.09375 72.90625 
L 55.421875 11.921875 
L 55.421875 72.90625 
L 64.984375 72.90625 
L 64.984375 0 
L 51.703125 0 
L 19.390625 60.984375 
L 19.390625 0 
L 9.8125 0 
z
" id="DejaVuSans-78"/>
      </defs>
      <use xlink:href="#DejaVuSans-68"/>
      <use x="77.001953" xlink:href="#DejaVuSans-77"/>
      <use x="163.28125" xlink:href="#DejaVuSans-45"/>
      <use x="199.365234" xlink:href="#DejaVuSans-82"/>
      <use x="268.847656" xlink:href="#DejaVuSans-78"/>
      <use x="343.652344" xlink:href="#DejaVuSans-78"/>
     </g>
    </g>
    <g id="line2d_33">
     <path d="M 1407.458899 752.534294 
L 1477.458899 752.534294 
" style="fill:none;stroke:#00ff00;stroke-linecap:square;stroke-width:5;"/>
    </g>
    <g id="line2d_34">
     <g>
      <use style="fill:#00ff00;stroke:#00ff00;" x="1442.458899" xlink:href="#m094c1e5798" y="752.534294"/>
     </g>
    </g>
    <g id="text_32">
     <!-- DM-RNN+BLs -->
     <g transform="translate(1505.458899 764.784294)scale(0.35 -0.35)">
      <defs>
       <path d="M 46 62.703125 
L 46 35.5 
L 73.1875 35.5 
L 73.1875 27.203125 
L 46 27.203125 
L 46 0 
L 37.796875 0 
L 37.796875 27.203125 
L 10.59375 27.203125 
L 10.59375 35.5 
L 37.796875 35.5 
L 37.796875 62.703125 
z
" id="DejaVuSans-43"/>
      </defs>
      <use xlink:href="#DejaVuSans-68"/>
      <use x="77.001953" xlink:href="#DejaVuSans-77"/>
      <use x="163.28125" xlink:href="#DejaVuSans-45"/>
      <use x="199.365234" xlink:href="#DejaVuSans-82"/>
      <use x="268.847656" xlink:href="#DejaVuSans-78"/>
      <use x="343.652344" xlink:href="#DejaVuSans-78"/>
      <use x="418.457031" xlink:href="#DejaVuSans-43"/>
      <use x="502.246094" xlink:href="#DejaVuSans-66"/>
      <use x="570.849609" xlink:href="#DejaVuSans-76"/>
      <use x="626.5625" xlink:href="#DejaVuSans-115"/>
     </g>
    </g>
    <g id="line2d_35">
     <path d="M 1812.999524 752.534294 
L 1882.999524 752.534294 
" style="fill:none;stroke:#0000ff;stroke-linecap:square;stroke-width:5;"/>
    </g>
    <g id="line2d_36">
     <g>
      <use style="fill:#0000ff;stroke:#0000ff;stroke-linejoin:miter;" x="1847.999524" xlink:href="#m05d79266d4" y="752.534294"/>
     </g>
    </g>
    <g id="text_33">
     <!-- DM-RNN+FLs -->
     <g transform="translate(1910.999524 764.784294)scale(0.35 -0.35)">
      <use xlink:href="#DejaVuSans-68"/>
      <use x="77.001953" xlink:href="#DejaVuSans-77"/>
      <use x="163.28125" xlink:href="#DejaVuSans-45"/>
      <use x="199.365234" xlink:href="#DejaVuSans-82"/>
      <use x="268.847656" xlink:href="#DejaVuSans-78"/>
      <use x="343.652344" xlink:href="#DejaVuSans-78"/>
      <use x="418.457031" xlink:href="#DejaVuSans-43"/>
      <use x="502.246094" xlink:href="#DejaVuSans-70"/>
      <use x="559.765625" xlink:href="#DejaVuSans-76"/>
      <use x="615.478516" xlink:href="#DejaVuSans-115"/>
     </g>
    </g>
   </g>
  </g>
  <g id="axes_3">
   <g id="patch_13">
    <path d="M 1588.257391 594 
L 2199.631304 594 
L 2199.631304 95.04 
L 1588.257391 95.04 
z
" style="fill:#ffffff;"/>
   </g>
   <g id="matplotlib.axis_5">
    <g id="xtick_13">
     <g id="line2d_37">
      <g>
       <use style="stroke:#000000;stroke-width:3;" x="1616.047115" xlink:href="#mde4ba26922" y="594"/>
      </g>
     </g>
     <g id="text_34">
      <!-- 0% -->
      <g transform="translate(1588.285005 627.594531)scale(0.35 -0.35)">
       <use xlink:href="#DejaVuSans-48"/>
       <use x="63.623047" xlink:href="#DejaVuSans-37"/>
      </g>
     </g>
    </g>
    <g id="xtick_14">
     <g id="line2d_38">
      <g>
       <use style="stroke:#000000;stroke-width:3;" x="1727.206008" xlink:href="#mde4ba26922" y="594"/>
      </g>
     </g>
     <g id="text_35">
      <!-- 20% -->
      <g transform="translate(1688.309524 627.594531)scale(0.35 -0.35)">
       <use xlink:href="#DejaVuSans-50"/>
       <use x="63.623047" xlink:href="#DejaVuSans-48"/>
       <use x="127.246094" xlink:href="#DejaVuSans-37"/>
      </g>
     </g>
    </g>
    <g id="xtick_15">
     <g id="line2d_39">
      <g>
       <use style="stroke:#000000;stroke-width:3;" x="1838.364901" xlink:href="#mde4ba26922" y="594"/>
      </g>
     </g>
     <g id="text_36">
      <!-- 40% -->
      <g transform="translate(1799.468417 627.594531)scale(0.35 -0.35)">
       <use xlink:href="#DejaVuSans-52"/>
       <use x="63.623047" xlink:href="#DejaVuSans-48"/>
       <use x="127.246094" xlink:href="#DejaVuSans-37"/>
      </g>
     </g>
    </g>
    <g id="xtick_16">
     <g id="line2d_40">
      <g>
       <use style="stroke:#000000;stroke-width:3;" x="1949.523794" xlink:href="#mde4ba26922" y="594"/>
      </g>
     </g>
     <g id="text_37">
      <!-- 60% -->
      <g transform="translate(1910.62731 627.594531)scale(0.35 -0.35)">
       <use xlink:href="#DejaVuSans-54"/>
       <use x="63.623047" xlink:href="#DejaVuSans-48"/>
       <use x="127.246094" xlink:href="#DejaVuSans-37"/>
      </g>
     </g>
    </g>
    <g id="xtick_17">
     <g id="line2d_41">
      <g>
       <use style="stroke:#000000;stroke-width:3;" x="2060.682688" xlink:href="#mde4ba26922" y="594"/>
      </g>
     </g>
     <g id="text_38">
      <!-- 80% -->
      <g transform="translate(2021.786203 627.594531)scale(0.35 -0.35)">
       <use xlink:href="#DejaVuSans-56"/>
       <use x="63.623047" xlink:href="#DejaVuSans-48"/>
       <use x="127.246094" xlink:href="#DejaVuSans-37"/>
      </g>
     </g>
    </g>
    <g id="xtick_18">
     <g id="line2d_42">
      <g>
       <use style="stroke:#000000;stroke-width:3;" x="2171.841581" xlink:href="#mde4ba26922" y="594"/>
      </g>
     </g>
     <g id="text_39">
      <!-- 100% -->
      <g transform="translate(2121.810722 627.594531)scale(0.35 -0.35)">
       <use xlink:href="#DejaVuSans-49"/>
       <use x="63.623047" xlink:href="#DejaVuSans-48"/>
       <use x="127.246094" xlink:href="#DejaVuSans-48"/>
       <use x="190.869141" xlink:href="#DejaVuSans-37"/>
      </g>
     </g>
    </g>
    <g id="text_40">
     <!-- 监督训练数据的比例 -->
     <g transform="translate(1691.444348 685.557031)scale(0.45 -0.45)">
      <use xlink:href="#SimSun-30417"/>
      <use x="100" xlink:href="#SimSun-30563"/>
      <use x="200" xlink:href="#SimSun-35757"/>
      <use x="300" xlink:href="#SimSun-32451"/>
      <use x="400" xlink:href="#SimSun-25968"/>
      <use x="500" xlink:href="#SimSun-25454"/>
      <use x="600" xlink:href="#SimSun-30340"/>
      <use x="700" xlink:href="#SimSun-27604"/>
      <use x="800" xlink:href="#SimSun-20363"/>
     </g>
    </g>
   </g>
   <g id="matplotlib.axis_6">
    <g id="ytick_13">
     <g id="line2d_43">
      <g>
       <use style="stroke:#000000;stroke-width:3;" x="1588.257391" xlink:href="#md4b90cf928" y="594"/>
      </g>
     </g>
     <g id="text_41">
      <!-- 0 -->
      <g transform="translate(1558.988641 607.297266)scale(0.35 -0.35)">
       <use xlink:href="#DejaVuSans-48"/>
      </g>
     </g>
    </g>
    <g id="ytick_14">
     <g id="line2d_44">
      <g>
       <use style="stroke:#000000;stroke-width:3;" x="1588.257391" xlink:href="#md4b90cf928" y="494.208"/>
      </g>
     </g>
     <g id="text_42">
      <!-- 20 -->
      <g transform="translate(1536.719891 507.505266)scale(0.35 -0.35)">
       <use xlink:href="#DejaVuSans-50"/>
       <use x="63.623047" xlink:href="#DejaVuSans-48"/>
      </g>
     </g>
    </g>
    <g id="ytick_15">
     <g id="line2d_45">
      <g>
       <use style="stroke:#000000;stroke-width:3;" x="1588.257391" xlink:href="#md4b90cf928" y="394.416"/>
      </g>
     </g>
     <g id="text_43">
      <!-- 40 -->
      <g transform="translate(1536.719891 407.713266)scale(0.35 -0.35)">
       <use xlink:href="#DejaVuSans-52"/>
       <use x="63.623047" xlink:href="#DejaVuSans-48"/>
      </g>
     </g>
    </g>
    <g id="ytick_16">
     <g id="line2d_46">
      <g>
       <use style="stroke:#000000;stroke-width:3;" x="1588.257391" xlink:href="#md4b90cf928" y="294.624"/>
      </g>
     </g>
     <g id="text_44">
      <!-- 60 -->
      <g transform="translate(1536.719891 307.921266)scale(0.35 -0.35)">
       <use xlink:href="#DejaVuSans-54"/>
       <use x="63.623047" xlink:href="#DejaVuSans-48"/>
      </g>
     </g>
    </g>
    <g id="ytick_17">
     <g id="line2d_47">
      <g>
       <use style="stroke:#000000;stroke-width:3;" x="1588.257391" xlink:href="#md4b90cf928" y="194.832"/>
      </g>
     </g>
     <g id="text_45">
      <!-- 80 -->
      <g transform="translate(1536.719891 208.129266)scale(0.35 -0.35)">
       <use xlink:href="#DejaVuSans-56"/>
       <use x="63.623047" xlink:href="#DejaVuSans-48"/>
      </g>
     </g>
    </g>
    <g id="ytick_18">
     <g id="line2d_48">
      <g>
       <use style="stroke:#000000;stroke-width:3;" x="1588.257391" xlink:href="#md4b90cf928" y="95.04"/>
      </g>
     </g>
     <g id="text_46">
      <!-- 100 -->
      <g transform="translate(1514.451141 108.337266)scale(0.35 -0.35)">
       <use xlink:href="#DejaVuSans-49"/>
       <use x="63.623047" xlink:href="#DejaVuSans-48"/>
       <use x="127.246094" xlink:href="#DejaVuSans-48"/>
      </g>
     </g>
    </g>
    <g id="text_47">
     <!-- F1 -->
     <g transform="translate(1521.132391 368.748125)rotate(-90)scale(0.4 -0.4)">
      <use xlink:href="#DejaVuSans-70"/>
      <use x="57.519531" xlink:href="#DejaVuSans-49"/>
     </g>
    </g>
   </g>
   <g id="line2d_49">
    <path clip-path="url(#p3fca24986b)" d="M 1616.047115 470.158128 
L 1727.206008 489.71736 
L 1838.364901 282.848544 
L 1949.523794 189.992088 
L 2060.682688 187.946352 
L 2171.841581 194.981688 
" style="fill:none;stroke:#ff0000;stroke-linecap:square;stroke-width:5;"/>
    <g clip-path="url(#p3fca24986b)">
     <use style="fill:#ff0000;stroke:#ff0000;stroke-linejoin:miter;" x="1616.047115" xlink:href="#mef2cc99fae" y="470.158128"/>
     <use style="fill:#ff0000;stroke:#ff0000;stroke-linejoin:miter;" x="1727.206008" xlink:href="#mef2cc99fae" y="489.71736"/>
     <use style="fill:#ff0000;stroke:#ff0000;stroke-linejoin:miter;" x="1838.364901" xlink:href="#mef2cc99fae" y="282.848544"/>
     <use style="fill:#ff0000;stroke:#ff0000;stroke-linejoin:miter;" x="1949.523794" xlink:href="#mef2cc99fae" y="189.992088"/>
     <use style="fill:#ff0000;stroke:#ff0000;stroke-linejoin:miter;" x="2060.682688" xlink:href="#mef2cc99fae" y="187.946352"/>
     <use style="fill:#ff0000;stroke:#ff0000;stroke-linejoin:miter;" x="2171.841581" xlink:href="#mef2cc99fae" y="194.981688"/>
    </g>
   </g>
   <g id="line2d_50">
    <path clip-path="url(#p3fca24986b)" d="M 1616.047115 298.416096 
L 1727.206008 249.019056 
L 1838.364901 181.85904 
L 1949.523794 187.59708 
L 2060.682688 168.586704 
L 2171.841581 145.484856 
" style="fill:none;stroke:#00ff00;stroke-linecap:square;stroke-width:5;"/>
    <g clip-path="url(#p3fca24986b)">
     <use style="fill:#00ff00;stroke:#00ff00;" x="1616.047115" xlink:href="#m094c1e5798" y="298.416096"/>
     <use style="fill:#00ff00;stroke:#00ff00;" x="1727.206008" xlink:href="#m094c1e5798" y="249.019056"/>
     <use style="fill:#00ff00;stroke:#00ff00;" x="1838.364901" xlink:href="#m094c1e5798" y="181.85904"/>
     <use style="fill:#00ff00;stroke:#00ff00;" x="1949.523794" xlink:href="#m094c1e5798" y="187.59708"/>
     <use style="fill:#00ff00;stroke:#00ff00;" x="2060.682688" xlink:href="#m094c1e5798" y="168.586704"/>
     <use style="fill:#00ff00;stroke:#00ff00;" x="2171.841581" xlink:href="#m094c1e5798" y="145.484856"/>
    </g>
   </g>
   <g id="line2d_51">
    <path clip-path="url(#p3fca24986b)" d="M 1616.047115 176.919336 
L 1727.206008 186.449472 
L 1838.364901 163.39752 
L 1949.523794 176.37048 
L 2060.682688 151.871544 
L 2171.841581 161.551368 
" style="fill:none;stroke:#0000ff;stroke-linecap:square;stroke-width:5;"/>
    <g clip-path="url(#p3fca24986b)">
     <use style="fill:#0000ff;stroke:#0000ff;stroke-linejoin:miter;" x="1616.047115" xlink:href="#m05d79266d4" y="176.919336"/>
     <use style="fill:#0000ff;stroke:#0000ff;stroke-linejoin:miter;" x="1727.206008" xlink:href="#m05d79266d4" y="186.449472"/>
     <use style="fill:#0000ff;stroke:#0000ff;stroke-linejoin:miter;" x="1838.364901" xlink:href="#m05d79266d4" y="163.39752"/>
     <use style="fill:#0000ff;stroke:#0000ff;stroke-linejoin:miter;" x="1949.523794" xlink:href="#m05d79266d4" y="176.37048"/>
     <use style="fill:#0000ff;stroke:#0000ff;stroke-linejoin:miter;" x="2060.682688" xlink:href="#m05d79266d4" y="151.871544"/>
     <use style="fill:#0000ff;stroke:#0000ff;stroke-linejoin:miter;" x="2171.841581" xlink:href="#m05d79266d4" y="161.551368"/>
    </g>
   </g>
   <g id="patch_14">
    <path d="M 1588.257391 594 
L 1588.257391 95.04 
" style="fill:none;stroke:#000000;stroke-linecap:square;stroke-linejoin:miter;stroke-width:0.8;"/>
   </g>
   <g id="patch_15">
    <path d="M 2199.631304 594 
L 2199.631304 95.04 
" style="fill:none;stroke:#000000;stroke-linecap:square;stroke-linejoin:miter;stroke-width:0.8;"/>
   </g>
   <g id="patch_16">
    <path d="M 1588.257391 594 
L 2199.631304 594 
" style="fill:none;stroke:#000000;stroke-linecap:square;stroke-linejoin:miter;stroke-width:0.8;"/>
   </g>
   <g id="patch_17">
    <path d="M 1588.257391 95.04 
L 2199.631304 95.04 
" style="fill:none;stroke:#000000;stroke-linecap:square;stroke-linejoin:miter;stroke-width:0.8;"/>
   </g>
   <g id="text_48">
    <!-- iTunes-Amazon1 -->
    <g transform="translate(1690.018567 75.04)scale(0.5 -0.5)">
     <defs>
      <path d="M 9.421875 54.6875 
L 18.40625 54.6875 
L 18.40625 0 
L 9.421875 0 
z
M 9.421875 75.984375 
L 18.40625 75.984375 
L 18.40625 64.59375 
L 9.421875 64.59375 
z
" id="DejaVuSans-105"/>
      <path d="M -0.296875 72.90625 
L 61.375 72.90625 
L 61.375 64.59375 
L 35.5 64.59375 
L 35.5 0 
L 25.59375 0 
L 25.59375 64.59375 
L -0.296875 64.59375 
z
" id="DejaVuSans-84"/>
      <path d="M 8.5 21.578125 
L 8.5 54.6875 
L 17.484375 54.6875 
L 17.484375 21.921875 
Q 17.484375 14.15625 20.5 10.265625 
Q 23.53125 6.390625 29.59375 6.390625 
Q 36.859375 6.390625 41.078125 11.03125 
Q 45.3125 15.671875 45.3125 23.6875 
L 45.3125 54.6875 
L 54.296875 54.6875 
L 54.296875 0 
L 45.3125 0 
L 45.3125 8.40625 
Q 42.046875 3.421875 37.71875 1 
Q 33.40625 -1.421875 27.6875 -1.421875 
Q 18.265625 -1.421875 13.375 4.4375 
Q 8.5 10.296875 8.5 21.578125 
z
M 31.109375 56 
z
" id="DejaVuSans-117"/>
      <path d="M 56.203125 29.59375 
L 56.203125 25.203125 
L 14.890625 25.203125 
Q 15.484375 15.921875 20.484375 11.0625 
Q 25.484375 6.203125 34.421875 6.203125 
Q 39.59375 6.203125 44.453125 7.46875 
Q 49.3125 8.734375 54.109375 11.28125 
L 54.109375 2.78125 
Q 49.265625 0.734375 44.1875 -0.34375 
Q 39.109375 -1.421875 33.890625 -1.421875 
Q 20.796875 -1.421875 13.15625 6.1875 
Q 5.515625 13.8125 5.515625 26.8125 
Q 5.515625 40.234375 12.765625 48.109375 
Q 20.015625 56 32.328125 56 
Q 43.359375 56 49.78125 48.890625 
Q 56.203125 41.796875 56.203125 29.59375 
z
M 47.21875 32.234375 
Q 47.125 39.59375 43.09375 43.984375 
Q 39.0625 48.390625 32.421875 48.390625 
Q 24.90625 48.390625 20.390625 44.140625 
Q 15.875 39.890625 15.1875 32.171875 
z
" id="DejaVuSans-101"/>
     </defs>
     <use xlink:href="#DejaVuSans-105"/>
     <use x="27.783203" xlink:href="#DejaVuSans-84"/>
     <use x="73.742188" xlink:href="#DejaVuSans-117"/>
     <use x="137.121094" xlink:href="#DejaVuSans-110"/>
     <use x="200.5" xlink:href="#DejaVuSans-101"/>
     <use x="262.023438" xlink:href="#DejaVuSans-115"/>
     <use x="314.123047" xlink:href="#DejaVuSans-45"/>
     <use x="347.957031" xlink:href="#DejaVuSans-65"/>
     <use x="416.365234" xlink:href="#DejaVuSans-109"/>
     <use x="513.777344" xlink:href="#DejaVuSans-97"/>
     <use x="575.056641" xlink:href="#DejaVuSans-122"/>
     <use x="627.546875" xlink:href="#DejaVuSans-111"/>
     <use x="688.728516" xlink:href="#DejaVuSans-110"/>
     <use x="752.107422" xlink:href="#DejaVuSans-49"/>
    </g>
   </g>
  </g>
  <g id="axes_4">
   <g id="patch_18">
    <path d="M 2321.906087 594 
L 2933.28 594 
L 2933.28 95.04 
L 2321.906087 95.04 
z
" style="fill:#ffffff;"/>
   </g>
   <g id="matplotlib.axis_7">
    <g id="xtick_19">
     <g id="line2d_52">
      <g>
       <use style="stroke:#000000;stroke-width:3;" x="2349.69581" xlink:href="#mde4ba26922" y="594"/>
      </g>
     </g>
     <g id="text_49">
      <!-- 0% -->
      <g transform="translate(2321.933701 627.594531)scale(0.35 -0.35)">
       <use xlink:href="#DejaVuSans-48"/>
       <use x="63.623047" xlink:href="#DejaVuSans-37"/>
      </g>
     </g>
    </g>
    <g id="xtick_20">
     <g id="line2d_53">
      <g>
       <use style="stroke:#000000;stroke-width:3;" x="2460.854704" xlink:href="#mde4ba26922" y="594"/>
      </g>
     </g>
     <g id="text_50">
      <!-- 20% -->
      <g transform="translate(2421.958219 627.594531)scale(0.35 -0.35)">
       <use xlink:href="#DejaVuSans-50"/>
       <use x="63.623047" xlink:href="#DejaVuSans-48"/>
       <use x="127.246094" xlink:href="#DejaVuSans-37"/>
      </g>
     </g>
    </g>
    <g id="xtick_21">
     <g id="line2d_54">
      <g>
       <use style="stroke:#000000;stroke-width:3;" x="2572.013597" xlink:href="#mde4ba26922" y="594"/>
      </g>
     </g>
     <g id="text_51">
      <!-- 40% -->
      <g transform="translate(2533.117112 627.594531)scale(0.35 -0.35)">
       <use xlink:href="#DejaVuSans-52"/>
       <use x="63.623047" xlink:href="#DejaVuSans-48"/>
       <use x="127.246094" xlink:href="#DejaVuSans-37"/>
      </g>
     </g>
    </g>
    <g id="xtick_22">
     <g id="line2d_55">
      <g>
       <use style="stroke:#000000;stroke-width:3;" x="2683.17249" xlink:href="#mde4ba26922" y="594"/>
      </g>
     </g>
     <g id="text_52">
      <!-- 60% -->
      <g transform="translate(2644.276006 627.594531)scale(0.35 -0.35)">
       <use xlink:href="#DejaVuSans-54"/>
       <use x="63.623047" xlink:href="#DejaVuSans-48"/>
       <use x="127.246094" xlink:href="#DejaVuSans-37"/>
      </g>
     </g>
    </g>
    <g id="xtick_23">
     <g id="line2d_56">
      <g>
       <use style="stroke:#000000;stroke-width:3;" x="2794.331383" xlink:href="#mde4ba26922" y="594"/>
      </g>
     </g>
     <g id="text_53">
      <!-- 80% -->
      <g transform="translate(2755.434899 627.594531)scale(0.35 -0.35)">
       <use xlink:href="#DejaVuSans-56"/>
       <use x="63.623047" xlink:href="#DejaVuSans-48"/>
       <use x="127.246094" xlink:href="#DejaVuSans-37"/>
      </g>
     </g>
    </g>
    <g id="xtick_24">
     <g id="line2d_57">
      <g>
       <use style="stroke:#000000;stroke-width:3;" x="2905.490277" xlink:href="#mde4ba26922" y="594"/>
      </g>
     </g>
     <g id="text_54">
      <!-- 100% -->
      <g transform="translate(2855.459417 627.594531)scale(0.35 -0.35)">
       <use xlink:href="#DejaVuSans-49"/>
       <use x="63.623047" xlink:href="#DejaVuSans-48"/>
       <use x="127.246094" xlink:href="#DejaVuSans-48"/>
       <use x="190.869141" xlink:href="#DejaVuSans-37"/>
      </g>
     </g>
    </g>
    <g id="text_55">
     <!-- 监督训练数据的比例 -->
     <g transform="translate(2425.093043 685.557031)scale(0.45 -0.45)">
      <use xlink:href="#SimSun-30417"/>
      <use x="100" xlink:href="#SimSun-30563"/>
      <use x="200" xlink:href="#SimSun-35757"/>
      <use x="300" xlink:href="#SimSun-32451"/>
      <use x="400" xlink:href="#SimSun-25968"/>
      <use x="500" xlink:href="#SimSun-25454"/>
      <use x="600" xlink:href="#SimSun-30340"/>
      <use x="700" xlink:href="#SimSun-27604"/>
      <use x="800" xlink:href="#SimSun-20363"/>
     </g>
    </g>
   </g>
   <g id="matplotlib.axis_8">
    <g id="ytick_19">
     <g id="line2d_58">
      <g>
       <use style="stroke:#000000;stroke-width:3;" x="2321.906087" xlink:href="#md4b90cf928" y="594"/>
      </g>
     </g>
     <g id="text_56">
      <!-- 0 -->
      <g transform="translate(2292.637337 607.297266)scale(0.35 -0.35)">
       <use xlink:href="#DejaVuSans-48"/>
      </g>
     </g>
    </g>
    <g id="ytick_20">
     <g id="line2d_59">
      <g>
       <use style="stroke:#000000;stroke-width:3;" x="2321.906087" xlink:href="#md4b90cf928" y="494.208"/>
      </g>
     </g>
     <g id="text_57">
      <!-- 20 -->
      <g transform="translate(2270.368587 507.505266)scale(0.35 -0.35)">
       <use xlink:href="#DejaVuSans-50"/>
       <use x="63.623047" xlink:href="#DejaVuSans-48"/>
      </g>
     </g>
    </g>
    <g id="ytick_21">
     <g id="line2d_60">
      <g>
       <use style="stroke:#000000;stroke-width:3;" x="2321.906087" xlink:href="#md4b90cf928" y="394.416"/>
      </g>
     </g>
     <g id="text_58">
      <!-- 40 -->
      <g transform="translate(2270.368587 407.713266)scale(0.35 -0.35)">
       <use xlink:href="#DejaVuSans-52"/>
       <use x="63.623047" xlink:href="#DejaVuSans-48"/>
      </g>
     </g>
    </g>
    <g id="ytick_22">
     <g id="line2d_61">
      <g>
       <use style="stroke:#000000;stroke-width:3;" x="2321.906087" xlink:href="#md4b90cf928" y="294.624"/>
      </g>
     </g>
     <g id="text_59">
      <!-- 60 -->
      <g transform="translate(2270.368587 307.921266)scale(0.35 -0.35)">
       <use xlink:href="#DejaVuSans-54"/>
       <use x="63.623047" xlink:href="#DejaVuSans-48"/>
      </g>
     </g>
    </g>
    <g id="ytick_23">
     <g id="line2d_62">
      <g>
       <use style="stroke:#000000;stroke-width:3;" x="2321.906087" xlink:href="#md4b90cf928" y="194.832"/>
      </g>
     </g>
     <g id="text_60">
      <!-- 80 -->
      <g transform="translate(2270.368587 208.129266)scale(0.35 -0.35)">
       <use xlink:href="#DejaVuSans-56"/>
       <use x="63.623047" xlink:href="#DejaVuSans-48"/>
      </g>
     </g>
    </g>
    <g id="ytick_24">
     <g id="line2d_63">
      <g>
       <use style="stroke:#000000;stroke-width:3;" x="2321.906087" xlink:href="#md4b90cf928" y="95.04"/>
      </g>
     </g>
     <g id="text_61">
      <!-- 100 -->
      <g transform="translate(2248.099837 108.337266)scale(0.35 -0.35)">
       <use xlink:href="#DejaVuSans-49"/>
       <use x="63.623047" xlink:href="#DejaVuSans-48"/>
       <use x="127.246094" xlink:href="#DejaVuSans-48"/>
      </g>
     </g>
    </g>
    <g id="text_62">
     <!-- F1 -->
     <g transform="translate(2254.781087 368.748125)rotate(-90)scale(0.4 -0.4)">
      <use xlink:href="#DejaVuSans-70"/>
      <use x="57.519531" xlink:href="#DejaVuSans-49"/>
     </g>
    </g>
   </g>
   <g id="line2d_64">
    <path clip-path="url(#p0915aeb5a8)" d="M 2349.69581 502.889904 
L 2460.854704 558.174672 
L 2572.013597 535.771368 
L 2683.17249 393.41808 
L 2794.331383 265.68432 
L 2905.490277 283.197816 
" style="fill:none;stroke:#ff0000;stroke-linecap:square;stroke-width:5;"/>
    <g clip-path="url(#p0915aeb5a8)">
     <use style="fill:#ff0000;stroke:#ff0000;stroke-linejoin:miter;" x="2349.69581" xlink:href="#mef2cc99fae" y="502.889904"/>
     <use style="fill:#ff0000;stroke:#ff0000;stroke-linejoin:miter;" x="2460.854704" xlink:href="#mef2cc99fae" y="558.174672"/>
     <use style="fill:#ff0000;stroke:#ff0000;stroke-linejoin:miter;" x="2572.013597" xlink:href="#mef2cc99fae" y="535.771368"/>
     <use style="fill:#ff0000;stroke:#ff0000;stroke-linejoin:miter;" x="2683.17249" xlink:href="#mef2cc99fae" y="393.41808"/>
     <use style="fill:#ff0000;stroke:#ff0000;stroke-linejoin:miter;" x="2794.331383" xlink:href="#mef2cc99fae" y="265.68432"/>
     <use style="fill:#ff0000;stroke:#ff0000;stroke-linejoin:miter;" x="2905.490277" xlink:href="#mef2cc99fae" y="283.197816"/>
    </g>
   </g>
   <g id="line2d_65">
    <path clip-path="url(#p0915aeb5a8)" d="M 2349.69581 455.488704 
L 2460.854704 359.937864 
L 2572.013597 248.619888 
L 2683.17249 236.944224 
L 2794.331383 261.592848 
L 2905.490277 254.20824 
" style="fill:none;stroke:#00ff00;stroke-linecap:square;stroke-width:5;"/>
    <g clip-path="url(#p0915aeb5a8)">
     <use style="fill:#00ff00;stroke:#00ff00;" x="2349.69581" xlink:href="#m094c1e5798" y="455.488704"/>
     <use style="fill:#00ff00;stroke:#00ff00;" x="2460.854704" xlink:href="#m094c1e5798" y="359.937864"/>
     <use style="fill:#00ff00;stroke:#00ff00;" x="2572.013597" xlink:href="#m094c1e5798" y="248.619888"/>
     <use style="fill:#00ff00;stroke:#00ff00;" x="2683.17249" xlink:href="#m094c1e5798" y="236.944224"/>
     <use style="fill:#00ff00;stroke:#00ff00;" x="2794.331383" xlink:href="#m094c1e5798" y="261.592848"/>
     <use style="fill:#00ff00;stroke:#00ff00;" x="2905.490277" xlink:href="#m094c1e5798" y="254.20824"/>
    </g>
   </g>
   <g id="line2d_66">
    <path clip-path="url(#p0915aeb5a8)" d="M 2349.69581 362.382768 
L 2460.854704 294.424416 
L 2572.013597 229.609512 
L 2683.17249 246.72384 
L 2794.331383 255.20616 
L 2905.490277 221.0274 
" style="fill:none;stroke:#0000ff;stroke-linecap:square;stroke-width:5;"/>
    <g clip-path="url(#p0915aeb5a8)">
     <use style="fill:#0000ff;stroke:#0000ff;stroke-linejoin:miter;" x="2349.69581" xlink:href="#m05d79266d4" y="362.382768"/>
     <use style="fill:#0000ff;stroke:#0000ff;stroke-linejoin:miter;" x="2460.854704" xlink:href="#m05d79266d4" y="294.424416"/>
     <use style="fill:#0000ff;stroke:#0000ff;stroke-linejoin:miter;" x="2572.013597" xlink:href="#m05d79266d4" y="229.609512"/>
     <use style="fill:#0000ff;stroke:#0000ff;stroke-linejoin:miter;" x="2683.17249" xlink:href="#m05d79266d4" y="246.72384"/>
     <use style="fill:#0000ff;stroke:#0000ff;stroke-linejoin:miter;" x="2794.331383" xlink:href="#m05d79266d4" y="255.20616"/>
     <use style="fill:#0000ff;stroke:#0000ff;stroke-linejoin:miter;" x="2905.490277" xlink:href="#m05d79266d4" y="221.0274"/>
    </g>
   </g>
   <g id="patch_19">
    <path d="M 2321.906087 594 
L 2321.906087 95.04 
" style="fill:none;stroke:#000000;stroke-linecap:square;stroke-linejoin:miter;stroke-width:0.8;"/>
   </g>
   <g id="patch_20">
    <path d="M 2933.28 594 
L 2933.28 95.04 
" style="fill:none;stroke:#000000;stroke-linecap:square;stroke-linejoin:miter;stroke-width:0.8;"/>
   </g>
   <g id="patch_21">
    <path d="M 2321.906087 594 
L 2933.28 594 
" style="fill:none;stroke:#000000;stroke-linecap:square;stroke-linejoin:miter;stroke-width:0.8;"/>
   </g>
   <g id="patch_22">
    <path d="M 2321.906087 95.04 
L 2933.28 95.04 
" style="fill:none;stroke:#000000;stroke-linecap:square;stroke-linejoin:miter;stroke-width:0.8;"/>
   </g>
   <g id="text_63">
    <!-- Beer -->
    <g transform="translate(2569.397731 75.04)scale(0.5 -0.5)">
     <use xlink:href="#DejaVuSans-66"/>
     <use x="68.603516" xlink:href="#DejaVuSans-101"/>
     <use x="130.126953" xlink:href="#DejaVuSans-101"/>
     <use x="191.650391" xlink:href="#DejaVuSans-114"/>
    </g>
   </g>
  </g>
 </g>
 <defs>
  <clipPath id="p76c9284005">
   <rect height="498.96" width="611.373913" x="120.96" y="95.04"/>
  </clipPath>
  <clipPath id="peee49a5bfd">
   <rect height="498.96" width="611.373913" x="854.608696" y="95.04"/>
  </clipPath>
  <clipPath id="p3fca24986b">
   <rect height="498.96" width="611.373913" x="1588.257391" y="95.04"/>
  </clipPath>
  <clipPath id="p0915aeb5a8">
   <rect height="498.96" width="611.373913" x="2321.906087" y="95.04"/>
  </clipPath>
 </defs>
</svg>
